<?xml version="1.0" encoding="utf-8"?>
<!-- Generator: Adobe Illustrator 24.2.3, SVG Export Plug-In . SVG Version: 6.00 Build 0)  -->
<svg version="1.1" id="Layer_1" xmlns="http://www.w3.org/2000/svg" xmlns:xlink="http://www.w3.org/1999/xlink" x="0px" y="0px"
	 viewBox="0 0 1024 1024" style="enable-background:new 0 0 1024 1024;" xml:space="preserve">
<style type="text/css">
	.st0{fill:#174860;}
	.st1{fill:#D89084;}
	.st2{fill:#3E6277;}
	.st3{fill:#E8BDB6;}
	.st4{fill:#54180E;}
	.st5{fill:#FFFFFF;}
	.st6{fill:#906962;}
	.st7{fill:#267BAE;}
	.st8{fill:#113C56;}
	.st9{fill:#0E3A54;}
	.st10{fill:#E3AFA6;}
	.st11{fill:#A13C2B;}
	.st12{fill:#78B2D4;}
	.st13{fill:#BE786D;}
	.st14{fill:#C17E73;}
	.st15{fill:#D48578;}
</style>
<path class="st0" d="M-111.6-140.4c414.1,0,828.2,0,1242.3,0c0,414.1,0,828.2,0,1242.3c-414.1,0-828.2,0-1242.3,0
	C-111.6,687.9-111.6,273.8-111.6-140.4z M944.2,619.1c9.3-15,17.4-29.2,24.2-44.1c3.9-8.7,7.4-17.6,8.2-27.2c0.4-5-0.5-9.9-6-11.8
	c-5.7-2-8.9,2.1-11.5,6.2c-8,12.7-8.7,28.4-13.9,41.7c-1.6,4.2-2.4,8.7-2.3,13.1c0.1,15.3,2.2,22.6-7.3,24.9c-8,2-15.8,4.9-23.7,7.4
	c-9.4,3-18.7,6.1-28.3,9.3c-0.2-3.2,1.7-4.8,2.8-6.6c8.5-14.2,16.5-28.7,22.7-44.1c2.7-6.7,5.2-13.5,5.3-20.9
	c0.1-4.8-0.8-9.3-6.1-11c-5.5-1.8-8.4,2.1-11,5.9c-3.5,5.2-5.5,11.1-7.2,17.1c-4.7,16.8-7.6,33.9-8.9,51.3c-0.5,7.1-2.5,11-9.8,13.1
	c-10.9,3.1-21.4,7.6-32.1,11.6c-10.7,4.1-21.4,8.3-33.8,13c12.5-21.7,24.8-41.6,31-64.3c5.2-5,8.1-11.2,6.9-18.4
	c-1.9-11-11.7-12.9-20.7-15.8c7.3-9.3,14.4-17.9,17.6-28.9c3.9-13.1-2-20.9-15.5-20.1c-10.1,0.6-19,5-27.7,9.8
	c-2.9,1.6-5.3,4.3-9.3,4.5c0-3.4,0.1-6.5,0-9.6c-0.2-7.5-2-14.6-9.1-18.5c-7.3-4-14.3-1.8-21,2.2c-5.7,3.4-10.3,8.2-14.7,13.1
	c-3.8-3.1-6.5-1.8-8,2.4c-1.2,3.3-2.3,6.6-2.9,10.1c-3.6,20.5-3.3,41,0.5,61.4c0.4,1.9,0.8,3.7-1.2,4.9c-6.6,4.1-13.2,8.2-20.5,12.7
	c0-4.8,0-8.6,0-12.5c-0.1-18.6-4.8-35.9-15.1-51.4c-6.1-9.1-9.3-9-16.3-0.7c-0.1-3.9,1-8.1-3.5-10.6c-0.6-19.4,2-38.7,2.6-58.1
	c4.4-1.1,8.8-2.1,13.2-3.4c5.6-1.6,10.9-3.8,15.6-7.3c3.6-2.7,5.8-6,4.5-10.7c-1.3-4.4-5-5.8-9.1-6.3c-2-0.3-4.1-0.1-6.2,0.2
	c-6.2,0.7-12,2.8-18,4.5c-0.1-2.3-0.1-4.5-0.3-6.8c-1.1-12.5-3.6-24.5-14.1-32.9c-3.5-2.8-7.4-5.1-11.1-7.6c0.8-2.5,2.9-2.5,5-2.7
	c14.2-0.9,28.4-2.6,42.4-5.1c12.6-2.3,25.3-4.6,36.6-11.1c4.7-2.7,8.8-6.3,6.8-12.4c-1.9-5.8-7.1-6.4-12.2-6.1
	c-11.2,0.5-21.3,4.9-31.4,9.1c-14.9,6.2-28.6,14.6-42.9,22.1c-0.3-0.3-0.4-0.3-0.7-0.6c0.6-1.7,1.1-3.5,1.9-5.2
	c10.3-21.6,20.9-43.2,31-64.9c2.6-5.5,6.1-7.3,11.8-7.7c19-1.3,37.9-3.8,56.3-8.7c6.2-1.6,12.3-3.6,17.8-7c4.6-2.8,8.8-6.3,6.9-12.4
	c-1.9-6-7.4-6.6-12.7-6.4c-3.4,0.2-6.7,0.7-10,1.7c-20.2,5.8-38.6,15.7-56.7,25.9c-2.1,1.2-4,3.3-7.7,3
	c9.7-17.9,19.1-35.2,28.4-52.5c1.4-2.6,3.2-3.2,5.9-3.5c15.7-1.3,31.3-2.9,46.7-6.1c11.1-2.3,22.3-4.6,32.2-10.6
	c4.3-2.6,7.8-6,6.3-11.6c-1.6-5.6-6.3-6.5-11.4-6.5c-8.3-0.1-15.9,2.6-23.4,5.4c-17.1,6.4-32.9,15.5-48.9,24.1
	c-0.6-0.6-0.6-0.6-1.2-1.2c13.8-23.9,26.3-48.8,45.5-69.2c9.5-10.1,18-21.1,25.5-32.8c4-6.3,7.8-12.7,9.5-20.1
	c1.1-4.6,0.5-8.7-3.9-11.4c-4.2-2.6-8-0.8-11.4,1.9c-4.6,3.7-7.9,8.4-10.8,13.5c-10.1,17.3-16.6,36-22.8,54.9
	c-1.2,3.5-2.3,7-4.4,10.2c-10.8,16.7-20.9,33.7-30.8,51c-0.7,1.2-0.8,3.4-3.2,3.2c-4.3-19.6-8.9-39.1-16.5-57.8
	c-3.1-7.7-6.4-15.3-12.4-21.3c-3.2-3.2-7-5.5-11.7-3.3c-4.8,2.2-5.3,6.5-4.7,11.1c0.6,5.2,2.5,10,4.7,14.7
	c9.4,20.2,22.7,38,36.4,55.4c2.7,3.4,3,5.9,0.8,9.8c-8.9,16.1-17.4,32.4-26.1,48.6c-0.8,1.5-1.8,2.8-3.2,5.1
	c-0.6-2.3-0.9-3.5-1.2-4.6c-4.7-20.6-9.5-41.1-18.5-60.4c-2.7-5.8-5.6-11.6-10.6-15.9c-3.1-2.8-6.7-4.2-10.8-2.2
	c-3.9,1.9-4.8,5.4-4.7,9.3c0.1,6.6,2.8,12.4,5.7,18.2c9.7,19.8,22.8,37.4,36.4,54.6c2.3,2.9,2.4,4.9,0.8,8.2
	c-10.8,22.1-21.3,44.4-32,66.5c-0.8,1.6-0.8,3.7-3.1,4.6c-2.5-8.5-3.5-17.4-6.6-25.6c-1.1-6.6-3.3-12.9-5.5-19.2
	c-0.2-0.3-0.4-0.5-0.6-0.7l0-0.1c-2.3-9.2-5.6-18-11.2-25.8c-0.6-8.1,0.7-16,2.9-23.8c3.5-12.5,8.6-24.5,11.3-37.3
	c3.3-15.5-2.1-27.4-16.1-34.6c-4.2-2.2-8.6-4-13.2-5.4c-19.8-5.7-25.9-20-24.4-38.5c0.5-5.6,0.5-11-0.3-16.6
	c-3.6-24.6-27.6-45.1-52.4-44c-20.1,0.9-35.5,10.2-44.9,28.2c-2.2,4.2-4.1,5.5-9,4.3c-4.9-1.2-10.2-0.7-15.3,0.6
	c-25.9,6.4-45,36.2-38.8,62.2c4.2,17.8-0.5,31.3-15.7,41.9c-17,11.9-20.3,26-11.6,44.1c-0.3,5.3-3.2,9.9-3.7,15.3
	c-0.8,7.1,2.3,13,4,19.4c-4.7,14.4-9.4,28.8-14.4,44c-0.9-2-1.4-3.3-2-4.6c-9.9-24.1-19.7-48.2-29.9-72.2c-1.9-4.4-1.8-7.1,1.6-10.8
	c13.6-14.8,26-30.5,36.8-47.5c4.8-7.5,9.1-15.3,11-24.2c1-4.8,0.6-9.3-4.1-12c-4.7-2.7-8.8-0.8-12.5,2.4c-5.1,4.4-8.5,10.1-11.6,16
	c-9.9,19-16.2,39.3-22.2,59.8c-0.6,2-1.3,4-2,6.2c-2.4-1.5-2.7-3.5-3.4-5.1c-8.3-17.8-16.5-35.7-25-53.4c-1.7-3.6-1.4-5.6,1.2-8.6
	c14.4-16.2,28.2-33,39.4-51.8c4-6.8,7.7-13.7,9.1-21.6c0.8-4.3,0-8.4-4.1-10.8c-4.1-2.5-8-1.4-11.5,1.3c-4.7,3.6-8,8.4-10.8,13.5
	c-10.4,18.3-16.6,38.3-22.6,58.3c-1.2,3.9-2.3,7.7-3.7,12.5c-1.1-1.8-1.8-2.6-2.2-3.5c-9.2-18.7-19-37.2-29.2-55.5
	c-2.3-4.2-3.9-8.6-5.1-13.2c-5.7-21-11.6-41.9-22-61.1c-3.1-5.6-6.4-11.2-12.2-14.5c-6.9-3.9-13.6,0-13.8,7.9
	c-0.1,5.1,1.5,9.8,3.6,14.3c8,17.9,19.5,33.6,31.8,48.7c18.6,22.9,30.3,49.6,43.4,75.6c-0.4,0.3-0.3,0.3-0.7,0.6
	c-15.9-9.5-31.4-20-48.4-27.7c-9.2-4.2-18.5-8.4-28.9-8.6c-5.2-0.1-9.6,1.3-11.3,6.7c-1.7,5.3,1.4,8.8,5.2,11.6
	c5.7,4.2,12.2,7,18.9,9.2c20.7,6.9,42.1,10.6,63.6,13.5c2.7,0.4,5.2,0.4,6.6,3.5c8.8,18.9,18.5,37.5,26.1,56.9
	c-0.3,0.3-0.6,0.5-0.8,0.8c-14.9-8.9-29.2-18.6-44.9-26.1c-10.1-4.8-20.2-9.7-31.5-10.5c-5.1-0.4-10.2,0.4-12.4,6.1
	c-2,5.4,0.9,9.2,4.9,12.2c5.6,4.3,12.2,7,18.8,9.2c20.8,7,42.4,10.6,64.1,13.6c2.5,0.3,4.8,0.5,6,3.3c11.6,26.7,23.2,53.4,33,80.8
	c-0.3,0.3-0.6,0.5-0.8,0.8c-1.8-1.1-3.6-2.1-5.3-3.2c-17.4-11.2-34.9-22.1-54.3-29.7c-6.7-2.7-13.6-5.1-21-4.7
	c-4.2,0.2-7.8,1.7-9.4,5.8c-1.8,4.4-0.1,8.1,3.3,11.1c5,4.5,11,7.2,17.3,9.4c-2.5,21,1.3,40.6,12.1,58.9c0.5,0.8,0.3,2,0.4,3
	c-6,5.5-6.1,10-0.3,15.5c2.7,2.6,5.9,4.4,9.3,6c11,5.2,22.7,8.4,34.6,10.9c0.4,9.5-0.3,19.2,2.8,28.5c0.1,9.7,1.6,19.3,0.8,29
	c-4.4-0.7-8.8-2.1-13.3-1.2c-3.9,0.7-6.8,2.6-8.2,6.5c-1.3,3.8,0.2,6.8,2.7,9.4c1.3,1.3,2.8,2.4,4.2,3.6c0.5,2.6-1.3,4.2-2.5,6.1
	c-6.6,10.6-12,21.7-14.4,34c-1.1,5.5-1.6,11.2-2.5,17.5c-5.4-4.6-10-9-15.1-12.7c-3.4-2.5-3.7-4.7-2.5-8.7c6.1-20.2,9.8-40.8,7.1-62
	c-0.9-7-2.4-8.3-8.2-6.4c-2.2-4.8-5.4-8.9-9.2-12.4c-6.4-5.8-13.7-10.9-22.8-6.8c-8.6,3.9-10.7,11.9-10.9,20.7c0,1.7,0.9,3.6-1,5.3
	c-2.8-2.3-5.4-4.6-8.2-6.7c-8.2-6-16.7-11.4-27.1-12.9c-9.7-1.4-16.5,5.2-15.1,15c1.2,9,4.7,17.1,9.4,24.7c1.4,2.2,3,4.3,3.5,6.9
	c-1.7,1.4-3.4,0.9-5,1c-14.1,1.2-20.7,12.3-14.4,25.1c4.6,9.4,12,16.1,21.1,21.2c-4.1,4.2-2.5,6.8,2.5,8.3c1.6,0.5,3.2,1,4.8,1.3
	c17.4,2.7,34.8,2.1,51.6-2.4c11-2.9,19.3-2.6,27.3,6.3c7.3,8.2,16,15.1,22.6,24.4c-1,0.2-1.5,0.4-1.8,0.3c-1-0.2-2-0.4-3-0.6
	c-21.7-4.6-42.3-0.8-61.7,9.4c-4.1,2.1-9.4,4.5-8.4,10.3c1,5.6,6.7,5.9,11.3,7.1c4.2,13,11.4,24.5,18.3,36.2
	c-3.9,4.2-8.2,7.8-13.7,10c-10.7-5.3-21.4-10.6-32.2-15.8c-3-1.4-4.7-3.2-5.5-6.7c-2.5-11.1-5.2-22.1-8.4-33
	c-4.3-14.2-8.2-28.6-17-41c-2.3-3.2-5.1-6.6-9.7-4.5c-4.4,2-4.1,6.2-3.4,10.2c1.7,10.4,6.6,19.5,11.4,28.6
	c7.3,13.8,16.1,26.7,24.4,39.9c-0.7,0.8-0.6,0.7-1.3,1.5l-42.9-19.3c-11.4-7.7-22.6-21.8-24.7-23.5c-4.4-18.9-9.6-37.5-18.1-55.1
	c-1.8-3.7-3.9-7.3-7.1-10.1c-2.1-1.9-4.4-3.2-7.3-1.8c-2.8,1.3-3.8,3.8-3.6,6.6c0.1,2.5,0.4,4.9,1,7.3c1.8,7.3,5.1,14,8.4,20.6
	c6.3,12.7,14.6,26.3,22,38.5c0.2,0.4,0,0.9-0.5,1c-3.6,0.6-7.6-0.5-11.3-0.7c-14.3-5.5-28.5-11.3-42.9-16.4c-5-1.8-6.9-4.5-8-9.4
	c-4.6-20.8-10-41.4-19-60.9c-2-4.3-4.3-8.5-7.8-11.9c-2-1.9-4.2-3.4-7.2-2.4c-3.2,1.2-4.1,3.9-4.2,7c-0.1,4.4,1.2,8.6,2.8,12.6
	c7.4,19.5,18.9,36.7,30.1,54.1c1.1,1.8,3.2,3.2,2.7,6.1c-2.7,0.3-4.9-1-7.1-1.8c-12.7-4.3-25.4-8.9-38.2-12.8
	c-4.4-1.3-6.2-3.5-7.2-7.9c-4.9-21.1-10.1-42.3-19.4-62c-2-4.3-4.3-8.5-7.8-11.9c-2-1.9-4.4-3.3-7.3-2c-2.9,1.3-3.6,3.8-3.7,6.6
	c-0.2,6.2,2,11.8,4.3,17.3c7.6,17.8,18,34,28.7,50c1.4,2.1,2.8,4.2,4.8,7.2c-4.3-1.2-7.2-2.1-10.2-2.9
	c-25.5-7.1,68.1,25.6,72.4,27.3c13,5.3,26.2,10.1,39.4,15.1c-5.5,4.6,36.3,6.3,16.4,18.9c-4.4,2.8-7.3-0.2-11.6,1.6
	c-6.3,2.6-10.9,1.5-22,4.3c-2.6,1.7-5.1,3.4-7.7,5.1c-4.1,2.8-8.1,5.7-10.8,10.1c-2.2,3.7-2.4,7.5,0.3,11c2.6,3.4,6.1,4,10,2.6
	c2.1-0.8,4.4-1.4,6.3-2.5c10.9-6.4,20.6-14.4,28.8-24c12.7-11.5,19.9-8.5,19.9-8.5c2.6-1.2,11.1-0.6,14.1-0.4
	c12.8,5.7,25.6,11.2,38.3,17.1c3.4,1.6,7.5,2.4,10,5.7c-4.6,1.3-9.2,2.3-13.7,3.9c-14.6,5.2-29.3,10.4-41.6,20.2
	c-6.9,5.4-8.7,11.6-5.5,16.6c3.1,4.8,8.6,5.4,16.6,0.7c17.6-10.3,31.2-24.9,44.2-40.3c0.2-0.2,0-0.8-0.1-1.2
	c13,4.2,24.8,10.9,36.9,17.1c-16.2,12.2-34,21.8-52.4,30.2c-10.7,4.9-21.5,7.9-33.5,5.2c-4.9-1.1-10-0.7-14.7-1
	c-1.8,2.4,1,3.6,0.5,5.9c-7,0.9-14.2,1.4-20.9,4.4c-1.8,0.8-4.4,0.9-3.7,3.9c0.6,2.6,2.7,2.7,4.9,2.7c1.7,0,3.4,0,5.1,0
	c-4,3.5-8.3,5.9-12.4,8.5c-1.8,1.1-4.4,2.2-3.5,5.1c0.8,2.8,3.4,2.5,5.7,2.7c-4.4,5.2-9.2,10.3-9.9,17.5c-1.5,14.7,1.5,28.4,11,40.1
	c12.3,15.2,29.3,22.4,47.4,27.6c17.1,4.9,34.7,7.2,52.5,8.2c27.3,1.5,54.5,1.9,81.6-2.4c23.2-3.7,46-9.5,69.4-12.8
	c0.4,2-0.5,4.2,1.1,5.8c1.6,0.5,2.9-0.1,4.3-0.6c12.5-4.2,25.5-4.2,38.1-2.4c24.7,3.5,49.2,8.5,73.8,12.5c20.2,3.3,40,2.4,57.9-9.4
	c5.9,1.1,11.8,2.1,17.7,3.3c42.9,8.5,86,14.4,129.9,10.4c26.8-2.4,52.7-7.9,76.5-21.2c26.9-15,46-36.1,51.5-67.5
	c2.6-15.2-1.5-25.3-14.3-33.4c-12.5-7.8-26.4-11.5-41.1-12c-1.6-8.4-7.8-12.7-14.7-16.5c-10.8-5.9-22.3-9.8-34-13.2
	c-10.2-3-20.4-5.6-31.8-8.7c2.8-1.4,4.5-2.4,6.3-3.2c18.2-7.9,36.7-15.2,54.5-23.9c9-4.4,14.9-3.1,22.2,3.3
	c13.7,11.9,28.7,22.3,45.1,30.4c7.7,3.8,15.6,6.8,24.3,2.8c5.4,2.9,11.4,3,17.3,2.8c5.9-0.2,13.5,0.9,15.7-5.8
	c2.2-7.1-4.8-10.8-9.8-14.1c-13.8-9.2-29-15-45.4-16.9c-4.9-0.6-10.2-1.9-14.9,1.3c-13.2-1-25.3-6.6-38.2-9.4
	c23.8-10.3,47.9-19.1,72-27.8c3.3-1.2,5,0.6,7.1,2.2c15.5,12.4,31.3,24.5,49,33.7c5.5,2.9,11.2,5.4,17.6,5.7
	c3.5,0.2,6.6-0.8,8.4-4.1c2-3.6,0.8-6.9-1.5-9.8c-3.4-4.3-8.1-7.1-12.9-9.6c-13.1-6.8-27.1-11.1-41.3-15c-6.2-1.7-12.4-3.3-18.6-5
	c17-6.6,34-11.9,50.8-17.5c4.1-1.4,6.8-0.6,10,2.1c13.5,11.3,27.7,21.7,43,30.5c6.5,3.7,13.1,7.2,20.6,8.4c4.2,0.7,8.4,0.4,10.7-4.2
	c2.3-4.5,0.1-8.1-3-11.1c-5.5-5.5-12.5-8.8-19.5-11.8c-15.1-6.5-30.8-10.7-46.7-14.7c-1.5-0.4-3.3-0.1-3.7-2.4
	c5.4-1.6,10.7-3.2,16.1-4.6 M728.4,457.8c16.4-11.7,28.3-25.2,34.5-43.3c3.7-10.8,7.3-21.5,6.3-33.1c-0.7-7.9-5.1-10.3-11.5-6.3
	c-3.2,2-5.9,4.5-8.2,7.4c-6.7,8.4-12.1,17.8-16.2,27.7C726.9,425.1,725.3,440.6,728.4,457.8z M802.6,506.9c7.2-0.1,12.5-5,12.5-11.8
	c0-6.2-6.3-12-12.8-11.7c-6,0.2-12.1,6.4-11.9,12.1C790.7,501.9,796.1,507,802.6,506.9z M863.1,570.3c6.8,0,12.7-5.6,12.5-12
	c-0.1-5.8-6.3-11.5-12.5-11.5c-6.2,0-11.8,5.6-11.9,11.9C851.1,565,856.4,570.3,863.1,570.3z M874.9,494.8c0-6.5-5.1-11.4-11.9-11.4
	c-6.8,0-11.8,4.9-11.8,11.6c-0.1,6.6,5,11.7,11.6,11.9C869.6,507,874.9,501.7,874.9,494.8z M210.5,487.2c6.4,0.1,11.9-5.1,11.7-10.9
	c-0.2-5.7-6.2-11.1-12.1-11.1c-6.1,0.1-11.3,5.1-11.2,11C199,482.8,203.5,487.1,210.5,487.2z M202.5,525.4
	c-6.5-0.1-12,4.7-12.1,10.5c-0.1,5.5,5.7,11.2,11.7,11.4c5.9,0.2,11.7-5.4,11.6-11.2C213.8,530.6,208.4,525.5,202.5,525.4z
	 M278.5,484.8c0.1-6.2-5-11.3-11.2-11.4c-6.6,0-11.1,4.2-11.3,10.5c-0.2,6.2,4.7,11.5,10.9,11.7
	C273.4,495.9,278.4,491.2,278.5,484.8z"/>
<path class="st1" d="M371.9,503c-3.1-9.3-2.3-18.9-2.8-28.5c0.5-6.7,1-13.3,1.5-20c17,1.4,33.1-3.1,49.3-7.2
	c19.8-5,39-11.9,58.2-18.8c19-6.9,37.9-13.8,56.3-22.3c2.1,0.4,4.2,0.8,6.2,1.2c0.8,0.5,1.6,0.9,2.4,1.4l0,0c0,0.4-0.1,0.9-0.1,1.3
	c-3.3,0.5-6.7,1.5-10,0c-0.8,2-2.1,3.5-1,6.2c2.5-5.4,7.9-2.8,11.4-5.1c2.3,1.8,2.5,4.7,3.4,7.1c4.6,13,9.2,26,13.8,38.9
	c-5.7,2.1-9.9,6.4-14.9,9.7c5.9-1.1,11.2-3.1,15.4-7.5c1.8,2.9,1.2,6.9,4.4,9c0,0,0,0,0,0c-0.5,2.2,0.6,4.2,1.1,6.3
	c-4,5.8-9.9,9.7-14.8,14.7c-0.4,0.4-0.8,0.8-1.2,1.3c-0.6,0.2-1.1,0.4-1.7,0.5c0.1,0.2,0.3,0.5,0.3,0.5c0.5-0.3,0.9-0.6,1.4-0.9
	c0.4-0.4,0.9-0.8,1.3-1.2c6.8-1.1,10.6-6.9,16.2-10c2.8,6.9,5.4,13.8,8.3,20.6c4,9.4,6.5,19.4,12.6,27.9l0,0
	c1.5,8.6,5.6,16.2,10,23.6l0,0c0.7,3.8,1.9,7.4,5,10l0,0c-0.1,1.1,0,2.1,1.2,2.5l0,0c-0.2,1.1-0.1,2.1,1.2,2.5l0,0
	c-0.2,2.2,0.2,4,2.5,5l0,0c-0.2,1.1-0.1,2.1,1.2,2.5l0,0c-0.3,1.5-0.1,2.8,1.3,3.8l0,0c0,1.1,0.3,2,1.3,2.5l0,0
	c0.4,0.4,0.9,0.8,1.3,1.3l0,0c-0.2,1.1-0.1,2.1,1.2,2.5c0,0,0,0,0,0c0.1,2.1,0.1,4.1,0.2,6.2c-0.7,3.6-1.6,7.3-2.1,10.9
	c-1.9,14-6.6,27.8-2.5,42.2c5.6,20,11.4,40,17.1,60c1.4,5.6,2.1,11.3,4.6,16.5c1.7,8.9,3.4,17.8,5,26.7c0.1,0.7,0.2,1.5,0.3,2.2
	c0.1,1.7,0.2,3.4,0.3,5c-1.8,7.3-7.6,10.5-13.9,12.9c-18.1,7-37.3,8.9-56.4,9.6c-37.8,1.5-75.5,0.4-112.9-6
	c-15-2.6-30.1-5.3-43.8-12.5c-4.5-2.4-8.5-5.2-8.8-11c0.6-5.8,0-11.7,1.5-17.4c1.7-6.6,3.5-13.2,5.2-19.8c7.1-18,14-36.2,21.5-54.1
	c4.2-9.9,5.1-19.7,3.7-30.3c-2.3-16.6-5.2-33.1-8-49.6c-3.4-23.9-8.8-47.6-4-72.5C404.9,503,388.4,503,371.9,503z M519.5,419.9
	c2.8-1.5,5.4-3.1,8.7-3.2C524.9,416.9,520.6,414.1,519.5,419.9c-0.4,0.4-0.8,0.9-1.2,1.3c-3.9,0.2-7.7,0-11.4-1.1
	c-0.8,2.3-1.5,4.2-2.2,6.1c-3.1-0.1-6.2-0.3-9.3-0.4c3.1,1.8,6.2,5.1,9.2,0.4c3.1-1.7,5.6-5,9.9-2.7c1.4,0.8,3-0.6,3.7-2.3
	C518.6,420.7,519,420.3,519.5,419.9z"/>
<path class="st2" d="M402.2,746.7c0.3,5.8,4.3,8.6,8.8,11c13.7,7.2,28.8,10,43.8,12.5c37.4,6.4,75.1,7.4,112.9,6
	c19.1-0.7,38.3-2.6,56.4-9.6c6.3-2.4,12.1-5.6,13.9-12.9c9.6,0.1,19.2,0.1,28.8,0.2c10-0.5,19.9-0.9,29.9-1.4
	c19.1-1.3,38.2-2.2,57-6.2c8.4-1.8,16.9-3.4,25.6-3.4c10.3-1.7,20.5-1.6,30.8,0c14.7,0.5,28.6,4.2,41.1,12c12.8,8,17,18.2,14.3,33.4
	c-5.5,31.4-24.6,52.5-51.5,67.5c-23.7,13.2-49.7,18.8-76.5,21.2c-43.9,3.9-87-1.9-129.9-10.4c-5.9-1.2-11.8-2.2-17.7-3.3
	c-1.6-6.7-0.7-13.6-1.2-20.4c-0.8-12-0.9-12,8.8-16.7c2.4-0.5,4.9-0.8,7.2-1.5c36-11,71.9-22.5,108.8-30.5c29-6.3,58-13.1,88.3-11.2
	c-0.4-0.5-0.7-1.1-1.2-1.3c-1.7-0.6-3.5-1.3-5.3-1.6c-14.6-3-29.1-4.3-44.1-2.8c-21.7,2.3-43.1,6.1-64.5,10.4
	c-21.9,4.4-43.3,11.6-65.8,13.7c-22,2-43.6,1.2-65.1-3.6c-17.6-3.9-34.9-9.9-53.4-9.1c-14.4,0.6-28.5,3.9-42.8,5.3
	c-13.6,1.3-27.1,2.3-40.5-1.2c-28.5-7.4-57.5-12.4-87-13.9c-14.3-0.7-28.4,0.7-42.5,2.7c-8.1,1.2-16.2,3-23.7,6.6
	c13.5-1.2,27-3.2,40.5-3.1c7,0,14,0.5,21,1c18,1.3,35.3,5.4,52.2,11.6c29.7,10.9,60.4,17.9,91.6,22.5c-0.1,2-0.2,4-0.3,6
	c-2.4-0.4-4.9-0.7-7.3-1.2c-12.3-2.3-20.8,1.3-25.1,11.4c-1.6,3.7-3.5,4.6-7.3,4.7c-10.1,0.3-15.7,6.1-16.5,16.2
	c-23.3,3.2-46.1,9-69.4,12.7c-27.1,4.3-54.3,4-81.6,2.4c-17.8-1-35.3-3.2-52.5-8.2c-18.1-5.2-35.1-12.4-47.4-27.6
	c-9.5-11.7-12.6-25.4-11-40.1c0.7-7.1,5.5-12.3,9.9-17.5c3.7-1,6.6-3.4,9.9-5c3.5-1.7,7.3-2.7,11.1-3.7c3.3-0.9,6.5-3.1,10.8-2.2
	c-12.8,10.6-10.9,25.3,3.8,32.6c7.9-6.2-3.6-13.5,1.6-20.3c5-0.6,9.5-3.8,14.2-6.9c5.9-3.9,12.2-2.9,17.7,1.3
	c7.1,5.5,7.7,12.6,6.3,20.6c-1.3,6.9-1.9,14,0.7,20.8c1.1,2.9,3.6,5,6.8,4.1c2.9-0.8,3.1-3.7,2.3-6.3c-0.7-2.2-0.1-4.1,0.4-6.1
	c4.2-15,6.3-30.4,16.4-43.6c4-5.2,7.5-9.1,13.3-10.8c9.5-2.8,18.1-8,28-9.5c-1.3,1.9-0.5,2.4,1.5,2.4c13.8-0.4,27.6-0.8,41.3-1
	c2.6,0,1.8-1.3,1.4-2.7C367.5,747.3,384.9,746,402.2,746.7z"/>
<path class="st3" d="M653.2,410.1c3.7,2.5,7.7,4.7,11.1,7.6c10.4,8.5,13,20.4,14.1,32.9c0.2,2.2,0.2,4.5,0.3,6.8
	c0,7.7,0,15.3-0.1,23c-0.6,19.4-3.2,38.7-2.6,58.1c0,4.4,0,8.7,0,13.1c0.4,8-1.2,16,1.1,23.9c0.1,1.3,0,2.6,1.4,3.5
	c9.1,20,18.7,39.9,17.4,62.9c0,0.7-0.1,1.3-0.1,2c-1.7,3-3,6.3-6.1,8.3c-2.5,1.2-5,2.4-7.5,3.5c-2,0.1-4.1,0.1-6.1,0.2
	c-2.6-0.9-5.1-1.7-7.7-2.6c-3.3-2.4-6.6-4.8-9.8-7.1l-0.1-0.1c-0.8-0.4-1.5-0.9-2.3-1.3c-6-7-12.2-13.9-17.7-21.4
	c-4-5.4-6.4-12.1-12-16.3c-0.8-7.2-6.5-12-8.8-18.4c0.1-2.1-0.3-4-2.6-4.8c0,0,0,0,0,0c0-1.1-0.2-2-1.2-2.5c0,0,0,0,0,0
	c-0.4-0.4-0.9-0.8-1.3-1.3c0,0,0,0,0,0c0-1.1-0.1-2.1-1.3-2.5l0,0c0-1.4,0.3-2.9-1.3-3.8c0,0,0,0,0,0c0.1-1.1-0.2-2-1.2-2.5
	c0,0,0,0,0,0c-0.1-2-0.7-3.8-2.5-5c0,0,0,0,0,0c0.1-1.1-0.1-2-1.2-2.5c0,0,0,0,0,0c0-1.1-0.1-2-1.2-2.5c0,0,0,0,0,0
	c-0.2-4.1-1.6-7.5-5-10c0,0,0,0,0,0c-1.7-8.6-5.1-16.4-10-23.6c0,0,0,0,0,0c0.2-1.7-0.4-3.2-1-4.7c-4.6-11.1-8.9-22.3-13.6-33.4
	c-2-4.7-2.2-10.4-6.7-14l0.2,0c0.2-2.9,0.1-5.6-2.5-7.5c0,0,0,0,0,0c0-0.8,0.1-1.7-0.1-2.4c-5.8-17.3-11.7-34.5-17.6-51.7
	c-0.8-2.3-2.1-4.5-4.6-5.5c0,0,0,0,0,0c0.1-1.9-0.7-3.1-2.4-3.8l0,0c0-1-0.2-2-1.2-2.5l0,0c0-1-0.2-2-1.2-2.5l0,0
	c0-1.4,0.3-2.9-1.2-3.7l0,0c0.2-6.3-3.2-12.3-1.8-18.8c0.3-1.6-1.6-2.4-3.1-2.2c-4.8,0.5-9.6,1.2-15,1.9c2.5,5,0.1,9.6,0.1,14.2l0,0
	c-1.1,0.5-1.3,1.4-1.3,2.5l0,0c-3.6,0.3-3.8-2-3.8-4.7c0.1-7.1,0.1-14.2,0.1-21.3c10.7-1.5,21.3-3.5,32.1-4.5
	c-3.1-0.5-6.2-0.9-9.2-0.4c-7.7,1.2-15.9,0.4-23,4.8c-2.9,1.4-2.5,4-2.5,6.4c0,4.9,0,9.8,0,14.7c-0.5,0-1,0-1.5,0
	c1.7-10.4-1.5-20.6,0.4-31c1.7-0.2,3.6,0.5,4.9-1.3c2.7-0.1,5.3-0.4,7.9-0.6c9.3-0.7,18.8-1.8,28,0.7c0.1,1.4-0.2,2.8,1.2,3.7
	c1.6,8.1,6.7,14.8,9.6,22.4c1.8,4.7,2.8,9.8,6.8,13.4l-0.1,0.1c-0.2,2.2,0.1,4.1,2.5,5l0,0c0,1.7,0.8,2.6,2.5,2.5l0,0
	c-0.1,1.9-0.1,3.7,2.5,3.8l0,0c-0.1,1.9,0.7,3.1,2.5,3.8l0,0c-0.1,1.1,0.2,2,1.3,2.5l0,0c0.4,0.4,0.8,0.8,1.3,1.3l0,0
	c0.4,0.4,0.8,0.8,1.3,1.3l0,0c-0.1,1.9,0.7,3.2,2.5,3.8l0,0c0,1.1,0.1,2,1.3,2.5l0,0c0,2.6,1.6,4,3.7,5c-0.1,1.1,0.1,2,1.2,2.5l0,0
	c0,1.7,0.8,2.5,2.5,2.5l0,0c0,1.1,0.1,2,1.3,2.5l0,0c0.4,0.4,0.9,0.8,1.3,1.3l0,0c0,1.1,0.1,2,1.3,2.5l0,0c0.4,0.4,0.8,0.8,1.3,1.3
	l0,0c0,1.1,0.1,2,1.3,2.5l0,0c0.4,0.4,0.8,0.8,1.3,1.3l0,0c-0.1,1.1,0.1,2,1.3,2.5l0,0c0.4,0.4,0.8,0.8,1.3,1.3l0,0
	c0,1.1,0.1,2,1.3,2.5l0,0c0.4,0.4,0.8,0.8,1.3,1.3l0,0c0,1.1,0.1,2,1.3,2.5l0,0c0.4,0.4,0.8,0.8,1.3,1.3l0,0c0,1.1,0.1,2,1.3,2.5
	l0,0c0.4,0.4,0.9,0.8,1.3,1.3l0,0c0,1.1,0.1,2,1.3,2.5l0,0c0.4,0.4,0.9,0.8,1.3,1.3l0,0c0,1.1,0.1,2,1.3,2.5l0,0
	c0.4,0.4,0.8,0.8,1.3,1.3l0,0c-0.2,2.2,0.2,4.1,2.5,5l0,0c1.4,3.4,2,7.3,6.2,8.7c-0.3,3.2,1.4,5.3,4.7,7.6c-0.7-3.4-0.6-6.1-3.4-7.5
	c-0.1-2.1-0.1-4.2-2.6-5l0,0c0.8-7.4-3.1-13.6-5.2-20.2c-5.3-17.3-13.3-33.8-15.8-52c15.1-0.4,29.9,1.7,44.6,5
	c1.5,1.7,3.6,1.1,5.4,1.2C651,409.8,652.1,410,653.2,410.1z M638.8,505.6c-0.2-0.2-0.4-0.3-0.6-0.5c0.2,0.2,0.3,0.4,0.5,0.6
	c0.2,0.2,0.4,0.3,0.6,0.5C639.1,506,639,505.8,638.8,505.6z M659.9,541.6c-0.2-0.2-0.4-0.3-0.6-0.5c0.2,0.2,0.3,0.4,0.5,0.6
	c0.1,1,0.3,1.9,1.3,2.5c-0.1,2.1,0.4,4,2.5,5c0.1,1,0.3,1.9,1.3,2.5c0.1,1,0.3,1.9,1.3,2.5c0.2,0.2,0.4,0.3,0.6,0.5
	c-0.2-0.2-0.3-0.4-0.5-0.6c0-1-0.3-1.9-1.2-2.5c0-1-0.3-1.9-1.2-2.5c0.1-2.1-0.4-4-2.5-5C661.1,543.1,660.9,542.2,659.9,541.6z
	 M672.3,565.2c-0.2-0.2-0.4-0.3-0.6-0.5c0.2,0.2,0.3,0.4,0.5,0.6c0,1,0.3,1.9,1.2,2.5c0.2,0.5,0.4,1.1,0.6,1.6
	c0.2-0.1,0.5-0.3,0.4-0.3c-0.3-0.5-0.6-0.9-0.9-1.4C673.5,566.7,673.3,565.8,672.3,565.2z M669.8,560.2c-0.2-0.2-0.4-0.3-0.6-0.5
	c0.2,0.2,0.3,0.4,0.5,0.6c0.2,0.5,0.4,1.1,0.6,1.6c0.2-0.1,0.5-0.3,0.5-0.3C670.5,561.2,670.1,560.7,669.8,560.2z M643.6,514.4
	c0.4,0.4,0.8,0.8,1.2,1.2c-0.1,2.1,0.4,4,2.5,5c0.2,0.2,0.4,0.3,0.6,0.5c-0.2-0.2-0.3-0.4-0.5-0.6c0.1-2.1-0.4-4-2.5-5
	c-0.4-0.4-0.8-0.8-1.2-1.2c-0.3-1.1,0.6-3-1.8-3.1C641,513.1,642.6,513.6,643.6,514.4z M635.1,499.4c-0.2-0.2-0.4-0.3-0.6-0.5
	c0.2,0.2,0.3,0.4,0.5,0.6c0.3,1.1-0.6,3,2,3.1C637.3,500.9,636.3,500.1,635.1,499.4z M650,524.2c-0.2-0.2-0.4-0.3-0.6-0.5
	c0.2,0.2,0.3,0.4,0.5,0.6c-0.1,2.1,0.4,4,2.5,5c0.2,0.2,0.4,0.3,0.6,0.5c-0.2-0.2-0.3-0.4-0.5-0.6
	C652.5,527.1,652.1,525.2,650,524.2z M656.9,535.6c-0.2-0.3-0.3-0.8-0.5-0.8c-0.3-0.1-0.6,0.2-0.9,0.3c0.2,0.4,0.5,0.8,0.7,1.2
	C656.4,536,656.7,535.8,656.9,535.6z"/>
<path class="st4" d="M644.9,407.5c-14.7-3.3-29.5-5.4-44.6-5c-0.6-1.1-1.4-2.1-2.7-2.2c-9.6-0.7-18.8-3-27.9-6.1
	c-1.8-0.6-2.7,0.2-2.8,2c-4-3.6-5.1-8.8-6.8-13.4c-2.9-7.6-8-14.3-9.6-22.4l0.1-0.1c3.2,1.5,2.8,5.7,6.1,7.9c0-6.3,0.1-12-0.1-17.7
	c-0.1-3.2,1-5.4,3.2-7.6c10.8-10.6,16.6-23.9,20.2-38.2c0.8-3.1,2.2-4.2,4.6-4.8c6.5-1.5,10.6-5.5,11.7-11.9
	c1.2-7-1.9-11.9-9.2-15.4c-3.2-1.5-4.4-3.4-4.5-7.1c-0.8-21.9-10.5-38-31.1-46.9c0.2-1,0.2-2.1,0.6-3c3.7-8.4,3.6-16.6-2.3-23.7
	c-10-12.2-23.6-15.8-38.8-14.8c-4.7,0.3-9.2,2.2-14,2c-5.5-1.7-10.9-3.4-16.6-4.2c-9.6-1.4-17.6,2.2-21.6,11
	c-2.6,5.6-3.9,11.5-4.2,17.8c-0.3,8.1,2.5,15.8,2.6,23.8c-0.5,0.4-0.9,1-1.4,1.1c-12.3,2.4-18.9,7.3-17.1,21.2
	c-15.3,10.8-23.5,31-16.2,41.5c-2.4-17,2.7-30.1,17.3-38.8c4.6,8.3,9.2,16.5,12.1,25.6c2.5-1,0.6-4.5,3.9-4.7
	c-0.7,5.2-3,9.9-2.4,15.2c-2.1-0.8-0.5-2.8-2-4.1c-1.6,3-4.8,3.3-7.6,4.1c-11.6,3.3-23.4,6.1-33.2,13.8c-3.4,2.7-5.3,6.8-9.4,8.6
	c-8.6-18.1-5.4-32.2,11.6-44.1c15.2-10.6,19.9-24.1,15.7-41.9c-6.2-26.1,12.8-55.9,38.8-62.2c5.2-1.3,10.4-1.7,15.3-0.6
	c4.9,1.2,6.8-0.1,9-4.3c9.4-18,24.8-27.3,44.9-28.2c24.8-1.1,48.8,19.4,52.4,44c0.8,5.5,0.8,10.9,0.3,16.6
	c-1.5,18.5,4.6,32.8,24.4,38.5c4.6,1.3,8.9,3.2,13.2,5.4c14,7.1,19.4,19.1,16.1,34.6c-2.7,12.8-7.9,24.8-11.3,37.3
	c-2.2,7.9-3.5,15.7-2.9,23.8c-0.5,10.4,6.1,17.7,11.2,25.8c0,0,0,0.1,0,0.1c0.3,0.2,0.5,0.4,0.6,0.7c2.1,6.3,4.4,12.6,5.5,19.2
	c0,7.6,0.1,15.1,0.1,22.7C645.8,401.1,645.4,404.3,644.9,407.5z M532.7,144.7c4.8-0.7,9.6-1.4,14.4-2.1c13-2.1,21.8,5,25.2,14.6
	c5.1,14.6,2.8,28.9,0.2,43.3c-2.9,16.7,1.1,24.1,17.2,29.7c17.4,6,28.6,22,29.3,40.4c0.2,5.1-1.8,10-1,15.8c2.4-5.9,3.4-11.7,3-16.9
	c-1.7-19.1-8.5-32.9-29.5-41.9c-15.3-6.5-18.3-11.8-15.4-28.1c2-11.1,4.1-22.3,1.8-33.6c-2.2-10.8-5.3-21.3-17.3-25.1
	C551,137.7,541.6,139.7,532.7,144.7z"/>
<path class="st3" d="M306.3,744.2c-9.9,1.5-18.5,6.7-28,9.5c-5.9,1.7-9.3,5.6-13.3,10.8c-10.1,13.2-12.2,28.7-16.4,43.6
	c-0.6,2-1.1,3.9-0.4,6.1c0.8,2.5,0.6,5.4-2.3,6.3c-3.2,0.9-5.7-1.2-6.8-4.1c-2.7-6.8-2-13.8-0.7-20.8c1.4-8,0.9-15.1-6.3-20.6
	c-5.5-4.3-11.8-5.2-17.7-1.3c-4.6,3.1-9.2,6.2-14.2,6.9c-5.2,6.7,6.3,14-1.6,20.3c-14.7-7.3-16.6-22-3.8-32.6
	c-4.3-0.9-7.5,1.3-10.8,2.2c-3.8,1-7.6,2-11.1,3.7c-3.3,1.6-6.3,4-9.9,5c-2.2-0.2-4.8,0.1-5.7-2.7c-0.9-2.9,1.7-3.9,3.5-5.1
	c4.1-2.6,8.4-5,12.4-8.5c-1.7,0-3.4,0-5.1,0c-2.2,0-4.3-0.2-4.9-2.7c-0.7-3,1.9-3.1,3.7-3.9c6.7-2.9,13.9-3.5,20.9-4.4
	c0.5-2.3-2.3-3.5-0.5-5.9c4.7,0.3,9.9-0.1,14.7,1c12,2.7,22.8-0.3,33.5-5.2c18.4-8.4,36.2-18,52.4-30.2c1.2-0.1,1.7-0.9,1.9-1.9
	c5.4-2.2,9.7-5.8,13.7-10c3.9-1.8,7.2-4.4,9.9-7.7c16.2-11.8,30.2-26,44.3-40.2c1.1-1.1,1.6-2.4,1.4-4c3-3.9,3.8-8.5,4.8-13.1
	c3.5-14.7,5.5-29.5,6.3-44.6c1.5-14.9,3.1-29.9,2.4-44.9c0-4.4,0.1-8.8,0.1-13.2c0.8-9.7-0.8-19.3-0.8-29c16.5,0,33,0,50.2,0
	c-4.8,24.9,0.6,48.7,4,72.5c-3.3,10.1-4.5,20.6-6.2,31c-1.9,8.9-3.9,17.8-5.8,26.7c-0.3,2-0.4,4.1-0.9,6.1
	c-3.8,17.7-7.9,35.3-12.9,52.6c-2.1,4-4.5,7.8-7.6,11c-8.4,4.8-16.4,10.2-25.2,14.2c-11,5.1-22,10.2-33,15.4
	c-0.9,0.5-1.7,0.9-2.6,1.3C322.9,736.2,314.3,739.5,306.3,744.2z"/>
<path class="st5" d="M676.1,656c2-0.1,4.1-0.1,6.1-0.2c5.1,4.3,4,10,3.1,15.4c-1.1,7.1-4.3,13.7-6.4,20.5c-3.2,7.7-8,14.7-10.4,22.8
	c-6.2,6.3-8.9,14.5-13.9,21.5c0.4,0.3,0.8,0.6,1.2,0.9c9.2-4.6,18.4-9.2,27.6-13.8c11.2-5.6,22.4-11.2,33.5-16.9
	c3.9-1.2,9.1-1,9.9-6.5c1.2-7.9,1.7-15.9,2.5-23.9c1.7-9.5,3.4-18.9,5.1-28.4c0.8-2.3,1.6-4.6,2.3-6.8c2.6-7.9,4.6-16.1,11.3-21.9
	c4.9-3.5,8.8-1.7,12.1,2.5c1.7,5.5,1.1,10.9-0.5,16.2c-1.8,6.2-4,12.4-6,18.6c-3.8,7.3-8.2,14.2-10.9,22
	c-5.8,6.5-8.8,14.8-14.1,22.1c1.5,0.2,1.9,0.4,2.2,0.3c23-9.9,45.9-19.8,68.9-29.7c2.6-1.1,3.3-2.9,3.5-5.2
	c1.6-12.7,3.1-25.4,4.7-38.2c1.2-3.5,2.1-7,2.2-10.7c0.8-2.3,1.6-4.6,2.3-7c1.9-6.8,4.2-13.4,8.2-19.2c2.4-3.6,5.8-6.4,10.4-4.9
	c4.4,1.4,6.2,5.2,6.1,9.8c-0.1,2.9-0.5,5.7-0.8,8.6c-6.2,22.7-18.5,42.6-31,64.3c12.4-4.8,23-9,33.8-13c10.6-4,21.2-8.5,32.1-11.6
	c7.3-2.1,9.3-6.1,9.8-13.1c1.3-17.3,4.2-34.5,8.9-51.3c1.7-6,3.7-11.9,7.2-17.1c2.6-3.8,5.5-7.7,11-5.9c5.3,1.7,6.2,6.1,6.1,11
	c-0.1,7.4-2.6,14.2-5.3,20.9c-6.2,15.4-14.2,29.9-22.7,44.1c-1.1,1.8-2.9,3.4-2.8,6.6c9.6-3.2,19-6.3,28.3-9.3
	c7.9-2.6,15.7-5.4,23.7-7.4c5.4-1.3,7.1-4.3,7.5-9.5c1.2-16.1,3.7-32.1,7.6-47.7c1.9-7.8,4.1-15.6,8.5-22.6
	c2.6-4.1,5.7-8.2,11.5-6.2c5.5,1.9,6.4,6.8,6,11.8c-0.8,9.6-4.3,18.5-8.2,27.2c-6.7,14.9-14.9,29.1-24.2,44.1
	c10.7-2.9,6.8,4.4,8.2,4.8c15.8,4,31.6,8.3,46.7,14.7c7.1,3,14,6.3,19.5,11.8c3.1,3.1,5.2,6.6,3,11.1c-2.3,4.5-6.5,4.9-10.7,4.2
	c-7.5-1.2-14.1-4.6-20.6-8.4c-15.3-8.8-29.5-19.2-43-30.5c-3.2-2.7-5.9-3.5-10-2.1c-16.8,5.6-33.8,10.9-50.8,17.5
	c6.2,1.7,12.4,3.3,18.6,5c14.2,3.9,28.2,8.3,41.3,15c4.8,2.5,9.4,5.3,12.9,9.6c2.3,2.9,3.4,6.2,1.5,9.8c-1.8,3.3-4.9,4.3-8.4,4.1
	c-6.4-0.3-12-2.9-17.6-5.7c-17.8-9.2-33.5-21.3-49-33.7c-2.1-1.7-3.8-3.4-7.1-2.2c-24.1,8.7-48.1,17.6-72,27.8
	c12.9,2.8,25,8.3,38.2,9.4c0.6,2.9,3.3,2.7,5.2,3.5c7.6,3,15.3,5.9,22.2,10.3c6.9,4.4,12.6,9.4,9.8,18.8c-8.7,3.9-16.6,1-24.3-2.8
	c-16.4-8.1-31.4-18.5-45.1-30.4c-7.3-6.4-13.2-7.6-22.2-3.3c-17.8,8.7-36.3,16-54.5,23.9c-1.8,0.8-3.6,1.8-6.3,3.2
	c11.3,3.1,21.6,5.7,31.8,8.7c11.7,3.4,23.2,7.4,34,13.2c6.8,3.7,13.1,8.1,14.7,16.5c-10.3-1.6-20.5-1.7-30.8,0
	c-0.3-1.3-1.4-1.9-2.5-2.6c-16-9.1-30.7-20.1-44.8-31.9c-4.3-3.6-7.4-3.5-10.7,0.8c-10.9,2.9-20.9,7.9-30.5,13.9
	c-12.3,4.2-23.3,11.2-36.2,16.8c14.9,4.3,29,6.7,42,12.5c-10,0.5-19.9,0.9-29.9,1.4c-3-5.6-8.5-8.7-13.5-11.8
	c-3.1-1.9-6.5,2.6-9.9,3.8c-1.1,0.4-2.1,1.4-3.4,0.8c1-4.1,5.2-3.7,7.8-5.6c2.1-1.5,4-2.6,4.3-5.5c0.9-10,2-20,3-30
	c1.3-4.5,2.7-9,2.3-13.8c2.1-3.4,2.9-7.1,2.6-11.1l-0.1,0.1c0.9,0.2,0.9-0.5,1.1-1.1c1.9-6.3,4-12.5,7.3-18.2
	C670,658.6,671.8,655.5,676.1,656z"/>
<path class="st5" d="M346.1,301.4c-7.7-19.4-17.3-38-26.1-56.9c-1.4-3.1-3.9-3.2-6.6-3.5c-21.5-3-42.9-6.7-63.6-13.5
	c-6.7-2.2-13.2-5-18.9-9.2c-3.8-2.8-6.9-6.3-5.2-11.6c1.8-5.4,6.2-6.8,11.3-6.7c10.4,0.2,19.7,4.4,28.9,8.6
	c17,7.8,32.4,18.2,48.4,27.7c0.4,0.2,0.7,0.4,1.1,0.6c-0.1-0.4-0.3-0.8-0.4-1.2c-13.1-26-24.7-52.7-43.4-75.6
	c-12.3-15.1-23.8-30.8-31.8-48.7c-2-4.6-3.7-9.2-3.6-14.3c0.2-7.9,6.9-11.8,13.8-7.9c5.8,3.3,9.2,8.9,12.2,14.5
	c10.5,19.2,16.3,40.2,22,61.1c1.3,4.6,2.8,9,5.1,13.2c10.2,18.2,19.9,36.7,29.2,55.5c0.4,0.9,1.1,1.7,2.2,3.5
	c1.4-4.7,2.5-8.6,3.7-12.5c6-20,12.2-39.9,22.6-58.3c2.9-5.1,6.1-9.8,10.8-13.5c3.5-2.7,7.4-3.8,11.5-1.3c4.1,2.5,4.9,6.5,4.1,10.8
	c-1.4,7.9-5,14.8-9.1,21.6c-11.2,18.7-25,35.5-39.4,51.8c-2.6,3-2.9,5-1.2,8.6c8.5,17.7,16.7,35.6,25,53.4c0.8,1.6,1.1,3.6,3.4,5.1
	c0.7-2.2,1.4-4.2,2-6.2c6-20.5,12.2-40.8,22.2-59.8c3.1-5.9,6.5-11.6,11.6-16c3.6-3.2,7.8-5.1,12.5-2.4c4.7,2.7,5.1,7.2,4.1,12
	c-1.8,8.9-6.2,16.6-11,24.2c-10.8,17-23.2,32.7-36.8,47.5c-3.4,3.7-3.5,6.4-1.6,10.8c10.2,24,20,48.1,29.9,72.2
	c0.5,1.3,1.1,2.6,2,4.6c5-15.1,9.7-29.6,14.4-44c5.1,4.2,10.2,8.3,15.3,12.5c-2.3,3.2-4.5,6.5-6.8,9.7c-0.4,0.5-0.7,0.9-1.1,1.4
	c-0.5,0.7-1.1,1.4-1.6,2.1c-0.4,0.5-0.7,0.9-1.1,1.4c-0.4,0.4-0.8,0.9-1.2,1.3c-1.6,1.8-3.1,3.9-5,5.3c-12,9-12.4,19.6-5,31.6
	c-1,0.5-2.1,1.1-3.1,1.6c-1.5-4-3.1-8-4.4-12.1c-1.1-3.4-3-4.8-6.6-5.2c-16.1-1.8-32-4.8-47.8-8.6c-2.7-1.3-3.7-4.2-5.6-6.3
	c-5.9-6.5-9.1-6.5-14.4,0.1c-6.3-2.2-12.3-4.9-17.3-9.4c-3.4-3-5.1-6.7-3.3-11.1c1.6-4.1,5.2-5.6,9.4-5.8c7.4-0.4,14.3,2,21,4.7
	c19.3,7.6,36.9,18.6,54.3,29.7c1.7,1.1,3.5,2.1,5.3,3.2c0.4,0.2,0.8,0.4,1.1,0.5c-0.1-0.4-0.2-0.9-0.3-1.3
	c-9.8-27.4-21.5-54.1-33-80.8c-1.2-2.8-3.5-3-6-3.3c-21.7-3-43.3-6.7-64.1-13.6c-6.7-2.2-13.2-4.9-18.8-9.2c-4-3.1-6.9-6.9-4.9-12.2
	c2.1-5.7,7.2-6.4,12.4-6.1c11.4,0.8,21.5,5.7,31.5,10.5c15.7,7.5,30,17.2,44.9,26.1c0.4,0.2,0.8,0.4,1.2,0.6
	C346.4,302.3,346.2,301.8,346.1,301.4z"/>
<path class="st6" d="M416.9,357.9c-5.1-4.2-10.2-8.3-15.3-12.5c-1.6-6.4-4.7-12.4-4-19.4c0.6-5.3,3.5-10,3.7-15.3
	c4.1-1.8,6.1-5.9,9.4-8.6c9.8-7.7,21.6-10.6,33.2-13.8c2.8-0.8,6-1.1,7.6-4.1c1.5,1.3-0.1,3.3,2,4.1c-0.7-5.3,1.6-10.1,2.4-15.2
	c-3.3,0.2-1.4,3.7-3.9,4.7c-2.9-9.1-7.6-17.3-12.1-25.6c0.1-1.1-0.1-2-1.1-2.6c-1.7-13.9,4.9-18.8,17.1-21.2c0.5-0.1,1-0.7,1.4-1.1
	c1.1,0.1,2.1,0,2.8-1c10.6-0.4,18.4-8,16.9-17c-1.8-10.4,2.4-17.8,10.3-23.9c1.8-1.4,4.6-2.2,4.9-5.2c1.8-0.1,3.7,0.7,5.1-1.3
	c4.8,0.2,9.3-1.7,14-2c15.1-0.9,28.8,2.7,38.8,14.8c5.9,7.2,6,15.4,2.3,23.7c-0.4,0.9-0.4,2-0.6,3c-8.3,2.4-14-4.3-21.2-5.9
	c-5.9-2.3-11.3,0.2-16.7,2c-13.3,4.5-17.8,12.1-15.8,25.9c1.8,12.2,2.2,24.1-10.9,31.2c-0.3,0.2-0.4,0.7-0.6,1c0,0-0.4,0.2-0.4,0.2
	c-0.5,0.5-1,0.9-1.5,1.4c0,0-0.1-0.1-0.1-0.1c-1.8,0-2.9,1.2-3.8,2.6c-1.4,0.3-2.3,1.2-3,2.5c-5.9,5-6.7,11-3.4,17.7
	c2.5,5,4.8,10.1,8,14.5c5.1,7,6.9,14.7,7.2,23.1l0.1,0.1c-0.4,0.6-0.7,1.1-1.1,1.7c-1,1.6-1.6,3.2-1.3,5.1
	c-6.7,8-13.9,15.2-24.2,18.8c-14.9,5.2-29.4,3.9-43.9-1.2C418.4,358.8,417.6,358.3,416.9,357.9z M528.2,192.6
	c0.4,0.5,0.7,1.6,1.6,0.5C529.2,192.9,528.7,192.7,528.2,192.6c-0.5-0.5-0.7-1.6-1.6-0.4C527.1,192.3,527.6,192.4,528.2,192.6z
	 M522,190.1c0.4,0.3,0.9,0.6,1.3,0.9c0.1-0.2,0.2-0.3,0.3-0.5C523.1,190.4,522.5,190.3,522,190.1c-9.2-5.9-21.6-6.2-28.7,0.5
	c7.7-2.5,14.1-4.2,20.9-1.9C516.6,189.6,519.2,190.6,522,190.1z M461.1,263.5c6.7-4.6,13.8-8.6,21.4-11.5c1.4-0.5,2.1-1.9,2.2-3.4
	c4.5-1,4.7-4.6,4.9-8.1c0.5-6.9-1.8-13.4-2.4-20.1c-0.9-9.6,0.2-19.1,5.7-28.5c-4.2,1-4.8,3.6-5.6,5.8c-3.3,8.9-3.4,18.1-1.9,27.3
	c1.3,7.9,3.6,15.7-0.8,23.4c-6.3,3-12.6,5.8-18.8,9c-2.3,1.2-4.5,3-4.8,6c-0.2,0.2-0.3,0.4-0.5,0.6
	C460.7,263.8,460.9,263.6,461.1,263.5z M457,267.7c-0.2,0.4-0.6,0.8-0.7,1.2c-0.1,0.6,0.1,1.2,0.9,1c0.4-0.2,0.8-0.7,1-1.2
	C458.3,268,457.9,267.6,457,267.7z"/>
<path class="st5" d="M646.3,397.9c0-7.6-0.1-15.1-0.1-22.7c3.2,8.3,4.1,17.1,6.6,25.6c2.3-0.8,2.3-3,3.1-4.6
	c10.7-22.2,21.2-44.4,32-66.5c1.6-3.3,1.5-5.3-0.8-8.2c-13.6-17.2-26.7-34.8-36.4-54.6c-2.8-5.8-5.5-11.6-5.7-18.2
	c-0.1-4,0.8-7.4,4.7-9.3c4.1-2,7.7-0.5,10.8,2.2c4.9,4.4,7.9,10.1,10.6,15.9c8.9,19.3,13.8,39.8,18.5,60.4c0.3,1.2,0.6,2.3,1.2,4.6
	c1.4-2.3,2.4-3.6,3.2-5.1c8.7-16.2,17.2-32.5,26.1-48.6c2.2-3.9,1.9-6.4-0.8-9.8c-13.7-17.4-26.9-35.1-36.4-55.4
	c-2.2-4.7-4.1-9.5-4.7-14.7c-0.5-4.6,0-8.9,4.7-11.1c4.7-2.2,8.4,0,11.7,3.3c6,6,9.3,13.6,12.4,21.3c7.6,18.6,12.2,38.2,16.5,57.8
	c2.4,0.2,2.5-1.9,3.2-3.2c9.8-17.2,20-34.3,30.8-51c2.1-3.2,3.2-6.7,4.4-10.2c6.2-18.9,12.7-37.6,22.8-54.9c2.9-5,6.2-9.8,10.8-13.5
	c3.4-2.7,7.1-4.5,11.4-1.9c4.4,2.7,4.9,6.8,3.9,11.4c-1.7,7.4-5.5,13.8-9.5,20.1c-7.5,11.7-16,22.7-25.5,32.8
	c-19.3,20.5-31.7,45.3-45.5,69.2c-0.1,0.5-0.3,1-0.4,1.5c0.5-0.1,1-0.2,1.5-0.3c16-8.6,31.8-17.7,48.9-24.1
	c7.6-2.8,15.2-5.5,23.4-5.4c5,0,9.8,0.9,11.4,6.5c1.6,5.6-2,9-6.3,11.6c-9.9,6-21.1,8.4-32.2,10.6c-15.4,3.1-31.1,4.8-46.7,6.1
	c-2.7,0.2-4.5,0.9-5.9,3.5c-9.3,17.3-18.7,34.5-28.4,52.5c3.7,0.3,5.6-1.8,7.7-3c16.9-9.6,34-18.8,52.7-24.7
	c4.5-1.4,9.2-2.7,13.9-2.9c5.4-0.3,10.9,0.3,12.8,6.4c2,6.1-2.3,9.6-6.9,12.4c-5.5,3.4-11.6,5.4-17.8,7c-18.5,4.9-37.3,7.4-56.3,8.7
	c-5.7,0.4-9.3,2.1-11.8,7.7c-10.1,21.8-20.6,43.3-31,64.9c-0.8,1.7-1.3,3.5-1.9,5.2c-0.4,0.4-0.9,0.9-0.2,1.4c0.1,0,0.5-0.5,0.8-0.7
	c14.3-7.5,28-15.9,42.9-22.1c10.1-4.2,20.2-8.6,31.4-9.1c5.2-0.2,10.4,0.3,12.2,6.1c2,6.2-2.1,9.7-6.8,12.4
	c-11.3,6.5-24,8.8-36.6,11.1c-14,2.5-28.2,4.2-42.4,5.1c-2.1,0.1-4.2,0.2-5,2.7c-1.1-0.1-2.2-0.3-2.9-1.4
	C653.9,403.3,648.5,401.2,646.3,397.9z"/>
<path class="st3" d="M836.6,603.9c0.3-2.9,0.7-5.7,0.8-8.6c0.1-4.5-1.7-8.3-6.1-9.8c-4.6-1.5-8,1.3-10.4,4.9
	c-4,5.9-6.3,12.5-8.2,19.2c-0.7,2.4-1.5,4.7-2.3,7c-19.1-8.8-39.1-14.1-60.2-15.5c-3.9-0.2-4.8-1.8-3.9-5.6c2.2-8.8,2.5-18,2.7-27
	c0.4-15.7-1.3-31.3-6.1-46.4c4.4-5,8.9-9.7,14.7-13.1c6.7-4,13.8-6.1,21-2.2c7.1,3.9,8.9,11,9.1,18.5c0.1,3.1,0,6.2,0,9.6
	c3.9-0.2,6.4-2.9,9.3-4.5c8.7-4.8,17.6-9.2,27.7-9.8c13.6-0.8,19.4,7,15.5,20.1c-3.2,10.9-10.3,19.6-17.6,28.9
	c8.9,2.9,18.8,4.8,20.7,15.8C844.7,592.7,841.8,598.8,836.6,603.9z"/>
<path class="st3" d="M240.1,599.1c-9.1-5-16.5-11.7-21.1-21.2c-6.2-12.8,0.3-24,14.4-25.1c1.6-0.1,3.3,0.4,5-1
	c-0.4-2.6-2.1-4.7-3.5-6.9c-4.7-7.7-8.1-15.7-9.4-24.7c-1.3-9.8,5.4-16.3,15.1-15c10.4,1.5,18.9,6.9,27.1,12.9
	c2.8,2.1,5.4,4.4,8.2,6.7c1.9-1.6,1-3.6,1-5.3c0.3-8.7,2.3-16.8,10.9-20.7c9.1-4.1,16.5,1,22.8,6.8c3.8,3.4,7,7.6,9.2,12.4
	c-1,2.3-2,4.5-3,6.8c-7.6,19.1-9.3,39.1-9.8,59.4c-0.1,3.7-0.1,6.3-5.1,6.1C280.9,589.5,260.2,592.1,240.1,599.1z"/>
<path class="st3" d="M597.6,826.3c-9.7,4.6-9.6,4.6-8.8,16.7c0.5,6.8-0.4,13.7,1.2,20.4c-17.9,11.7-37.6,12.6-57.9,9.4
	c-24.6-4-49.1-9-73.8-12.5c-12.6-1.8-25.6-1.8-38.1,2.4c-1.4,0.5-2.7,1.1-4.3,0.6c-1.6-1.6-0.7-3.9-1.1-5.8
	c0.8-10.1,6.4-15.9,16.5-16.2c3.8-0.1,5.7-1,7.3-4.7c4.3-10.1,12.9-13.7,25.1-11.4c2.4,0.5,4.9,0.8,7.3,1.2c0.1,1.3-0.3,3.6,1.9,3
	c4.8-1.3,8.8,1,13,2.4c8.4,2.6,17.5,4.1,25.4,0.6c9.6-4.3,15.8-13.3,21.8-21.9c1.2-0.3,2.6-0.4,3.5-1c6.7-5,13.1-3.7,19.4,0.6
	c4.9,3.4,9.7,7,14.5,10.5c3,2.2,6.1,4.2,10,4.5C586.2,825.2,591.9,825.8,597.6,826.3z"/>
<path class="st7" d="M240.1,599.1c20.1-7,40.8-9.6,62-8.8c5,0.2,5-2.4,5.1-6.1c0.5-20.2,2.2-40.3,9.8-59.4c0.9-2.3,2-4.5,3-6.8
	c5.9-1.8,7.3-0.6,8.2,6.4c2.7,21.3-1,41.8-7.1,62c-1.2,4-0.9,6.2,2.5,8.7c5.1,3.7,9.7,8.1,15.1,12.7c0.9-6.3,1.4-12,2.5-17.5
	c2.4-12.3,7.8-23.4,14.4-34c1.2-1.9,3-3.5,2.5-6.1c2.8,0.1,4.3-2.1,6.2-3.5c2.6-1.9,5.3-2.8,8.4-1.6c0.7,15.1-0.9,30-2.3,44.9
	c-5.3,10.7-11.1,21.1-20.1,29.6c4.8,5.3,9.3,10.1,13.7,14.9c-1,4.6-1.8,9.2-4.8,13.1c-1.9-1.8-3.6-2.1-5.9-0.3
	c-14.3,11.2-31,15.8-48.8,17.2c-6.4-0.4-12.8-0.8-19.2-1.2c-4.6-1.2-10.3-1.5-11.3-7.1c-1-5.8,4.3-8.2,8.4-10.3
	c19.5-10.1,40-14,61.7-9.4c1,0.2,2,0.5,3,0.6c0.4,0.1,0.8-0.1,1.8-0.3c-6.6-9.3-15.3-16.2-22.6-24.4c-8-8.9-16.3-9.3-27.3-6.3
	c-16.8,4.4-34.2,5.1-51.6,2.4c-1.6-0.2-3.2-0.8-4.8-1.3C237.6,605.9,236,603.3,240.1,599.1z"/>
<path class="st5" d="M159.2,653.5c-13.1-5-26.4-9.8-39.4-15.1c-4.3-1.7-6.9-1.2-10.1,2.3c-10.3,11.6-21.1,22.8-33.9,31.8
	c-4.1,2.9-8.3,5.5-13.2,6.7c-3.5,0.9-7.1,0.7-9.5-2.7c-2.6-3.6-2.7-7.3-0.4-11c3.1-5.1,7.9-8.5,12.9-11.4
	c11.8-7,24.6-11.8,37.5-16.1c2.1-0.7,4.2-1.5,7.8-2.8c-13.7-4.6-26.3-8.1-38.3-13.1c-9.6-4-15.7-2.7-22.4,5.7
	c-8.6,10.8-19,20.1-30.7,27.8c-3.5,2.3-7.1,4.3-11.2,5.2c-3.6,0.8-7.1,0.7-9.5-2.6c-2.6-3.5-2.7-7.2-0.4-11c1.9-3.3,4.6-5.8,7.7-8
	c12.8-9.2,27.4-14.3,42.1-19.4c2.1-0.7,4.2-1.4,6.3-3.5c-13.6-3.8-0.4-7.5-1.8-9.6c-10.7-16-21-32.2-28.7-50
	c-2.4-5.5-4.5-11.2-4.3-17.3c0.1-2.8,0.8-5.4,3.7-6.6c2.9-1.3,5.3,0.1,7.3,2c3.5,3.3,5.8,7.5,7.8,11.9c9.3,19.8,14.5,40.9,19.4,62
	c1,4.4,2.8,6.5,7.2,7.9c12.8,4,25.5,8.5,38.2,12.8c2.3,0.8,4.5,2,7.1,1.8c0.5-2.9-1.6-4.3-2.7-6.1c-11.3-17.4-22.7-34.6-30.1-54.1
	c-1.5-4.1-2.9-8.2-2.8-12.6c0.1-3,1-5.8,4.2-7c3-1.1,5.2,0.4,7.2,2.4c3.5,3.4,5.8,7.6,7.8,11.9c9,19.5,14.3,40.1,19,60.9
	c1.1,4.9,3.1,7.7,8,9.4c14.4,5.1,28.6,10.9,42.9,16.4C163,655.3,161,654,159.2,653.5z"/>
<path class="st7" d="M743,522.2c4.8,15.1,6.4,30.7,6.1,46.4c-0.2,9-0.6,18.2-2.7,27c-1,3.9,0,5.4,3.9,5.6c21,1.3,41,6.7,60.2,15.5
	c-0.1,3.7-1,7.2-2.2,10.7c-2.3,0-4.5,0.1-6.8,0.1c-14.1,0.4-27.5-3.9-41.2-6.3c-3.4-4.2-7.2-5.9-12.1-2.5c-4-5.5-10.3-7-15.6-3.7
	c-12.9,8-24.8,17.4-36.7,27c1.3-22.9-8.3-42.8-17.4-62.9c0-1.1,0-2.3,0-3.4c0.1-8.9-0.5-17.8,1.2-26.6l-0.1,0
	c7-8.2,10.2-8.4,16.3,0.7c10.3,15.5,15,32.8,15.1,51.4c0,3.8,0,7.7,0,12.5c7.3-4.5,13.9-8.6,20.5-12.7c2-1.2,1.6-3,1.2-4.9
	c-3.8-20.4-4.1-40.9-0.5-61.4c0.6-3.4,1.7-6.8,2.9-10.1C736.5,520.4,739.2,519.2,743,522.2z"/>
<path class="st7" d="M728.4,457.8c-3.1-17.2-1.5-32.7,4.8-47.6c4.2-9.9,9.5-19.2,16.2-27.7c2.3-2.9,5-5.4,8.2-7.4
	c6.4-4,10.9-1.6,11.5,6.3c1,11.6-2.6,22.4-6.3,33.1C756.7,432.5,744.9,446.1,728.4,457.8z"/>
<path class="st7" d="M313.2,380.3c5.3-6.6,8.6-6.6,14.4-0.1c1.9,2.1,2.9,5,5.6,6.3c0.3,1,0.4,2.1,0.8,2.9
	c9,16.8,13.4,34.6,11.6,53.7c-1.5,4.6-0.7,9.8-3.6,14.1c-3.3-0.3-4.5-2.9-6.4-4.7c-3.4-3.4-5.3-8.3-10.1-10.3c-0.1-1,0.1-2.2-0.4-3
	C314.5,420.9,310.6,401.3,313.2,380.3z"/>
<path class="st5" d="M202.9,671.7c-0.2-1.8,1-2,2.3-2.1c14.3,6.4,28.6,12.9,42.9,19.3c0.6,0.4,1.3,0.8,1.9,0.1
	c0.2-0.2-0.3-0.9-0.4-1.4c-8.3-13.3-17.3-26.2-24.6-40.1c-4.8-9.1-9.7-18.3-11.4-28.6c-0.7-4-1-8.2,3.4-10.2
	c4.6-2.1,7.4,1.3,9.7,4.5c8.8,12.3,12.8,26.7,17,41c3.3,10.9,5.9,21.9,8.4,33c0.8,3.5,2.4,5.3,5.5,6.7c10.8,5.1,21.5,10.5,32.2,15.8
	c-0.2,1-0.7,1.8-1.9,1.9c-12.1-6.2-23.9-12.9-36.9-17.1l0.1,0c-2.5-3.3-6.5-4.1-10-5.7C228.5,682.9,215.7,677.4,202.9,671.7z"/>
<path class="st5" d="M251.1,694.4c0,0.4,0.2,0.9,0.1,1.2c-12.9,15.4-26.6,30.1-44.2,40.3c-8.1,4.7-13.5,4.1-16.6-0.7
	c-3.2-5-1.3-11.1,5.5-16.6c12.3-9.8,27-15.1,41.6-20.2C242,696.8,246.6,695.8,251.1,694.4C251.1,694.5,251.1,694.4,251.1,694.4z"/>
<path class="st7" d="M882.1,713.9c2.8-9.4-2.8-14.4-9.8-18.8c-7-4.4-14.6-7.4-22.2-10.3c-2-0.8-4.6-0.6-5.2-3.5
	c4.7-3.2,10.1-1.9,14.9-1.3c16.4,1.9,31.7,7.7,45.4,16.9c5,3.3,12.1,7,9.8,14.1c-2.1,6.7-9.7,5.7-15.7,5.8
	C893.5,716.9,887.6,716.9,882.1,713.9z"/>
<path class="st5" d="M181.6,651c-1.9,0-3.8,0-5.8,0c-7.4-12.4-15.6-24.4-22.1-37.3c-3.3-6.7-6.6-13.4-8.4-20.6
	c-0.6-2.4-0.8-4.9-1-7.3c-0.2-2.9,0.9-5.3,3.6-6.6c2.9-1.3,5.2-0.1,7.3,1.8c3.1,2.8,5.3,6.4,7.1,10.1c8.4,17.4,13.6,35.9,18,54.6
	C180.8,647.4,181.2,649.2,181.6,651z"/>
<path class="st8" d="M325.6,442.2c4.8,2,6.7,6.9,10.1,10.3c1.8,1.8,3,4.4,6.4,4.7c2.9-4.3,2-9.5,3.6-14.1
	c8.8,2.1,16.5,6.5,24.7,10.2c0.1,0.4,0.2,0.8,0.4,1.3c-0.5,6.7-1,13.3-1.5,20c-11.9-2.6-23.5-5.8-34.6-10.9c-3.4-1.6-6.6-3.4-9.3-6
	C319.5,452.1,319.5,447.7,325.6,442.2z"/>
<path class="st5" d="M142,678.4c6.7,2.2,13.7,1.1,20.6,1.4c2.1,0.1,4.5-0.9,6.4,0.8c-8.3,9.6-17.9,17.6-28.8,24
	c-1.9,1.1-4.2,1.7-6.3,2.5c-3.9,1.4-7.4,0.8-10-2.6c-2.7-3.5-2.5-7.3-0.3-11c2.6-4.4,6.6-7.3,10.8-10.1
	C136.9,681.8,139.4,680.1,142,678.4z"/>
<path class="st8" d="M678.6,480.4c0-7.7,0-15.3,0.1-23c6-1.7,11.8-3.8,18-4.5c2-0.2,4.2-0.4,6.2-0.2c4,0.5,7.8,1.9,9.1,6.3
	c1.4,4.7-0.9,8-4.5,10.7c-4.7,3.5-10.1,5.6-15.6,7.3C687.5,478.3,683,479.3,678.6,480.4z"/>
<path class="st8" d="M285.2,663.4c6.4,0.4,12.8,0.8,19.2,1.2c3,9.1,6,18.2,9,27.3c-2.7,3.3-6,5.9-9.9,7.7
	C296.6,688,289.4,676.5,285.2,663.4z"/>
<path class="st7" d="M802.6,506.9c-6.6,0.1-12-5-12.2-11.4c-0.2-5.7,5.9-11.9,11.9-12.1c6.5-0.2,12.8,5.5,12.8,11.7
	C815.1,501.9,809.9,506.8,802.6,506.9z"/>
<path class="st7" d="M863.1,570.3c-6.7,0-12.1-5.2-11.9-11.6c0.1-6.3,5.7-11.9,11.9-11.9c6.2,0,12.4,5.7,12.5,11.5
	C875.8,564.6,869.9,570.3,863.1,570.3z"/>
<path class="st7" d="M874.9,494.8c0,6.9-5.3,12.2-12.1,12c-6.6-0.1-11.7-5.3-11.6-11.9c0.1-6.7,5.1-11.6,11.8-11.6
	C869.7,483.3,874.8,488.3,874.9,494.8z"/>
<path class="st7" d="M210.5,487.2c-7-0.1-11.5-4.3-11.6-11c-0.1-5.9,5-11,11.2-11c6,0,12,5.4,12.1,11.1
	C222.4,482.1,217,487.2,210.5,487.2z"/>
<path class="st7" d="M202.5,525.4c6,0.1,11.3,5.1,11.3,10.7c0,5.9-5.8,11.5-11.6,11.2c-6.1-0.3-11.8-5.9-11.7-11.4
	C190.5,530.1,196,525.3,202.5,525.4z"/>
<path class="st7" d="M278.5,484.8c-0.1,6.4-5.1,11.1-11.6,10.8c-6.2-0.2-11-5.5-10.9-11.7c0.2-6.3,4.7-10.5,11.3-10.5
	C273.5,473.5,278.6,478.6,278.5,484.8z"/>
<path class="st8" d="M372.7,545.2c-3.1-1.2-5.7-0.3-8.4,1.6c-1.9,1.4-3.4,3.6-6.2,3.5c-1.4-1.2-2.9-2.3-4.2-3.6
	c-2.5-2.6-4.1-5.6-2.7-9.4c1.4-3.9,4.3-5.8,8.2-6.5c4.5-0.8,8.9,0.6,13.3,1.2C372.7,536.4,372.7,540.8,372.7,545.2z"/>
<path class="st8" d="M640,355.2c-5-8-11.6-15.4-11.2-25.8C634.4,337.3,637.8,346,640,355.2z"/>
<path class="st8" d="M676.1,551.7c0-4.4,0-8.7,0-13.1c4.5,2.4,3.5,6.7,3.5,10.5c0,0,0.1,0,0.1,0C677.8,549,677.6,551.3,676.1,551.7z
	"/>
<path class="st8" d="M640.7,356c-0.2-0.3-0.4-0.5-0.6-0.7C640.3,355.5,640.5,355.8,640.7,356z"/>
<path class="st3" d="M370.6,454.6c-0.1-0.4-0.2-0.8-0.4-1.3c1.3-16.8,5.4-32.1,21.7-40.9c1-0.5,2.1-1.1,3.1-1.6
	c4.2-1.5,8.5-3,12.7-4.5c18-3,36.2-3.8,54.3-5.3c6.4-0.5,13.1-2.3,18.9-5.2c5.9-2.9,10.6-8.1,10.9-15.4c0.1-3.2,1.9-4.7,3.9-6.4
	c0.4-0.4,0.9-0.8,1.3-1.2c0.4-0.4,0.8-0.8,1.3-1.3c0.4-0.4,0.8-0.8,1.2-1.3c0.4-0.4,0.8-0.8,1.2-1.3c1-0.6,1.2-1.5,1.2-2.5
	c0.4-0.4,0.8-0.8,1.2-1.2c2.8-1.2,2.5,0.8,2.5,2.4c0,6.5-0.2,13.1,0.1,19.6c0.2,5.8,5.5,9.1,9.9,6.5c0,0,0,0,0,0
	c0.5-0.4,0.9-0.9,1.4-1.3c5.8,4.6,11.5,9.2,17.3,13.8c-18.4,8.5-37.3,15.4-56.3,22.3c-19.2,7-38.4,13.9-58.2,18.8
	C403.7,451.5,387.6,456,370.6,454.6z"/>
<path class="st9" d="M617.7,588.8c2.3,6.4,8.1,11.2,8.8,18.4c-1.6,25.4,4.9,48.1,22.2,67.6c-8.5,8.7-13.4,19.5-21,28.5
	c-5.7-20-11.4-40-17.1-60c-4-14.3,0.6-28.2,2.5-42.2c0.5-3.7,1.4-7.3,2.1-10.9C616.1,589.7,616.9,589.2,617.7,588.8z"/>
<path class="st7" d="M627.7,703.3c7.6-9,12.5-19.8,21-28.5c-17.3-19.5-23.9-42.2-22.2-67.6c5.6,4.2,8,10.8,12,16.3
	c5.5,7.5,11.7,14.3,17.7,21.4c0.8,0.4,1.5,0.9,2.3,1.3c0,0,0.1,0.1,0.1,0.1c0.9,5.4-2.2,10.7-0.6,16.6c4.1-2.9,5.4-8.4,10.5-9.5
	c2.6,0.9,5.1,1.7,7.7,2.6c-4.3-0.4-6.1,2.6-7.9,5.7c-3.3,5.7-5.4,11.9-7.3,18.2c-0.4,0.4-0.7,0.7-1.1,1.1c0,0,0.1-0.1,0.1-0.1
	c-3,2.9-5.6,6.2-7.4,9.9c1.5,1.8,3.3,0.7,4.7,1.2c0.4,4.8-1,9.3-2.3,13.8c-2.7-2.1-5.4-4.3-8.3-6.5c-6.3,6.1-8.6,14.6-14.4,20.6
	C629.8,714.5,629.1,708.8,627.7,703.3z"/>
<path class="st9" d="M400.2,692c5.1-17.4,9.2-35,12.9-52.6c0.4-2,0.6-4,0.9-6.1c1.1-0.1,2-0.5,2.2-1.7c1.6-8.3,4.5-16.3,3.6-25
	c1.7-10.4,2.9-20.9,6.2-31c2.8,16.5,5.7,33,8,49.6c1.4,10.5,0.5,20.4-3.7,30.3c-7.5,17.9-14.4,36-21.5,54.1
	C406,703.7,403.1,697.8,400.2,692z"/>
<path class="st9" d="M334.4,732.6c11-5.1,21.9-10.3,33-15.4c8.8-4,16.8-9.4,25.2-14.2c3.7,8.8,7.4,17.5,11.1,26.3
	c-1.5,5.7-0.9,11.6-1.5,17.4c-17.3-0.7-34.7,0.6-51.7-3.8c0.6-1.4-0.4-1.3-1.2-1.2l0,0c-0.3-1.4-1.2-1.7-2.5-1.2l0,0
	C343.6,736.3,338.4,735.5,334.4,732.6z"/>
<path class="st9" d="M632.3,719.8c5.8-6.1,8.2-14.6,14.4-20.6c2.9,2.3,5.6,4.4,8.3,6.5c-1,10-2.1,20-3,30c-0.3,2.9-2.2,4-4.3,5.5
	c-2.6,1.8-6.8,1.5-7.8,5.6l0.1,0c-0.8-1.1-1.8-0.3-2.7-0.2C635.7,737.6,634,728.7,632.3,719.8z"/>
<path class="st10" d="M534.4,406.3c-5.8-4.6-11.5-9.2-17.3-13.8c0-0.4-0.1-0.8-0.1-1.2c0,0,0,0,0,0c2.8-2.3,2.6-5.4,2.4-8.5
	c-0.2-3.6,1.4-5.5,5.1-5.2c2.8,0.2,5.7-0.9,8.5,1.2c0.3,5.9-0.4,12.3,3.8,17.4c0,0,0,0,0,0c0,1.4-0.2,2.8,1.2,3.7c0,0,0,0,0,0
	c0,1,0.2,2,1.2,2.5c0,0,0,0,0,0c0,1,0.2,2,1.2,2.5c0,0,0,0,0,0c0,0.8,0.1,1.6,0.1,2.4C538.6,407.1,536.5,406.7,534.4,406.3z"/>
<path class="st7" d="M403.7,729.3c-3.7-8.8-7.4-17.5-11.1-26.3c3.1-3.3,5.5-7.1,7.6-11.1c2.9,5.8,5.8,11.7,8.7,17.5
	C407.2,716.1,405.5,722.7,403.7,729.3z"/>
<path class="st9" d="M639.9,746.7c1.3,0.6,2.3-0.4,3.4-0.8c3.4-1.2,6.8-5.6,9.9-3.8c5,3,10.5,6.2,13.5,11.8
	c-9.6-0.1-19.2-0.1-28.8-0.2c-0.1-1.7-0.2-3.4-0.3-5C638.6,748.2,640,748.2,639.9,746.7L639.9,746.7z"/>
<path class="st4" d="M543,408.8c2.5,1,3.8,3.1,4.6,5.5c5.9,17.2,11.8,34.5,17.6,51.7c0.3,0.7,0.1,1.6,0.1,2.4
	c-3.2-2.2-2.7-6.2-4.4-9c-0.2-0.7-0.4-1.5-0.5-2.2c-4.6-13-9.1-26-13.8-38.9c-0.9-2.5-1.1-5.3-3.4-7.1c0-0.4-0.2-0.7-0.4-1
	C542.9,409.7,542.9,409.2,543,408.8z"/>
<path class="st4" d="M567.7,476c4.4,3.6,4.6,9.2,6.7,14c4.7,11.1,9,22.2,13.6,33.4c0.6,1.6,1.2,3,1,4.7c-6.1-8.4-8.6-18.5-12.6-27.9
	c-2.9-6.8-5.6-13.7-8.3-20.6C567.9,478.4,567.8,477.2,567.7,476z"/>
<path class="st11" d="M567.7,476c0.1,1.2,0.2,2.4,0.3,3.6c-5.5,3.1-9.4,8.9-16.2,10l-0.2-0.2c4.9-5,10.8-8.9,14.8-14.7
	c0.5,0.4,0.9,0.8,1.4,1.2L567.7,476z"/>
<path class="st4" d="M589,528c4.8,7.2,8.3,15.1,10,23.6C594.5,544.3,590.5,536.7,589,528z"/>
<path class="st11" d="M560.4,457.2c0.2,0.7,0.4,1.5,0.5,2.2c-4.2,4.4-9.6,6.4-15.4,7.5C550.5,463.6,554.7,459.3,560.4,457.2z"/>
<path class="st11" d="M518.2,421.2c-0.7,1.6-2.3,3-3.7,2.3c-4.4-2.3-6.9,1-9.9,2.7l0,0c0.7-1.9,1.4-3.8,2.2-6.1
	C510.6,421.2,514.4,421.4,518.2,421.2C518.2,421.2,518.2,421.2,518.2,421.2z"/>
<path class="st11" d="M542.9,410.1c0.2,0.3,0.3,0.7,0.4,1c-3.5,2.3-8.9-0.2-11.4,5.1c-1.1-2.7,0.2-4.1,1-6.2
	C536.2,411.6,539.5,410.6,542.9,410.1z"/>
<path class="st4" d="M598.9,551.6c3.4,2.4,4.8,5.9,5,10C600.7,559,599.5,555.5,598.9,551.6z"/>
<path class="st11" d="M504.6,426.1c-3.1,4.7-6.1,1.4-9.2-0.4C498.4,425.9,501.5,426,504.6,426.1
	C504.6,426.2,504.6,426.1,504.6,426.1z"/>
<path class="st11" d="M519.5,419.9c1.1-5.9,5.5-3.1,8.7-3.2C524.9,416.8,522.2,418.4,519.5,419.9L519.5,419.9z"/>
<path class="st4" d="M567.9,475.9c-0.5-0.4-0.9-0.8-1.4-1.2c-0.5-2.1-1.6-4-1.1-6.3C567.9,470.3,568.1,473.1,567.9,475.9z"/>
<path class="st4" d="M617.7,588.8c-0.8,0.5-1.6,0.9-2.4,1.4c-0.1-2.1-0.1-4.1-0.2-6.2C617.4,584.8,617.7,586.7,617.7,588.8z"/>
<path class="st4" d="M606.4,566.6c1.7,1.2,2.4,2.9,2.5,5C606.6,570.6,606.1,568.7,606.4,566.6z"/>
<path class="st4" d="M540.7,407.5c0-0.8-0.1-1.6-0.1-2.4c1.7,0.7,2.6,1.9,2.4,3.8C542.2,408.4,541.4,407.9,540.7,407.5z"/>
<path class="st4" d="M610.1,574c1.6,0.9,1.3,2.4,1.3,3.8C610,576.8,609.8,575.5,610.1,574z"/>
<path class="st4" d="M603.9,561.6c1.1,0.5,1.3,1.4,1.2,2.5C603.8,563.7,603.7,562.7,603.9,561.6z"/>
<path class="st4" d="M605.1,564.1c1.1,0.5,1.3,1.4,1.2,2.5C605,566.2,605,565.2,605.1,564.1z"/>
<path class="st4" d="M608.8,571.5c1.1,0.5,1.3,1.4,1.2,2.5C608.8,573.6,608.6,572.7,608.8,571.5z"/>
<path class="st4" d="M611.3,577.7c1.2,0.5,1.3,1.5,1.3,2.5C611.6,579.7,611.3,578.8,611.3,577.7z"/>
<path class="st4" d="M613.8,581.5c1.1,0.5,1.3,1.4,1.2,2.5C613.8,583.6,613.6,582.6,613.8,581.5z"/>
<path class="st11" d="M550.6,490.8c-0.5,0.3-0.9,0.6-1.4,0.9c0,0-0.2-0.3-0.3-0.5C549.4,491,549.9,490.9,550.6,490.8
	C550.5,490.7,550.6,490.8,550.6,490.8z"/>
<path class="st8" d="M640,746.6c0,1.6-1.4,1.6-2.4,2c-0.1-0.7-0.2-1.5-0.3-2.2C638.2,746.4,639.2,745.5,640,746.6z"/>
<path class="st11" d="M551.9,489.6c-0.4,0.4-0.9,0.8-1.3,1.2c0,0-0.1-0.1-0.1-0.1c0.4-0.4,0.8-0.8,1.2-1.3
	C551.7,489.4,551.9,489.6,551.9,489.6z"/>
<path class="st4" d="M612.6,580.2c0.4,0.4,0.9,0.8,1.3,1.3C613.4,581.1,613,580.6,612.6,580.2z"/>
<path class="st11" d="M519.5,419.9c-0.4,0.4-0.8,0.8-1.2,1.3c0,0,0,0,0,0C518.7,420.8,519.1,420.4,519.5,419.9
	C519.5,419.9,519.5,419.9,519.5,419.9z"/>
<path class="st8" d="M597.6,826.3c-5.7-0.5-11.4-1.1-17.2-1.5c-3.9-0.3-7-2.3-10-4.5c-4.8-3.5-9.6-7.1-14.5-10.5
	c-6.3-4.3-12.7-5.6-19.4-0.6c-0.9,0.7-2.3,0.7-3.5,1c-2.2-3.8-5.6-6.7-8.9-9.4c-6.7-5.7-12.5-5.9-19.9-1.2
	c-4.3,2.8-8.5,5.9-12.7,8.9c-6.3,4.6-12.7,9.1-20.3,11.7c-31.3-4.6-61.9-11.6-91.6-22.5c-16.9-6.2-34.2-10.3-52.2-11.6
	c-7-0.5-14-1-21-1c-13.6-0.1-27,2-40.5,3.1c7.5-3.6,15.5-5.4,23.7-6.6c14.1-2,28.3-3.4,42.5-2.7c29.5,1.5,58.4,6.5,87,13.9
	c13.5,3.5,27,2.5,40.5,1.2c14.3-1.3,28.4-4.6,42.8-5.3c18.5-0.8,35.8,5.2,53.4,9.1c21.5,4.8,43.1,5.6,65.1,3.6
	c22.5-2,43.8-9.2,65.8-13.7c21.4-4.3,42.8-8.2,64.5-10.4c15-1.6,29.5-0.2,44.1,2.8c1.8,0.4,3.6,1,5.3,1.6c0.5,0.2,0.8,0.8,1.2,1.3
	c-30.2-1.9-59.2,4.9-88.3,11.2c-36.9,8-72.7,19.5-108.8,30.5C602.5,825.5,600.1,825.8,597.6,826.3z"/>
<path class="st9" d="M696.7,752.6c-13-5.8-27.1-8.2-42-12.5c12.9-5.7,23.9-12.7,36.2-16.8c10,4.2,20.5,4.5,30.9,3.3
	c9.3-1.1,11-6.3,5.1-13.5c-1.5-1.8-3.2-3.2-5.5-3.7c3.3-4.3,6.4-4.4,10.7-0.8c14.1,11.8,28.8,22.8,44.8,31.9
	c1.1,0.6,2.1,1.2,2.5,2.6c-8.7,0-17.2,1.6-25.6,3.4C734.9,750.4,715.8,751.3,696.7,752.6z"/>
<path class="st10" d="M471.4,820.3c7.6-2.5,14-7,20.3-11.7c4.2-3.1,8.3-6.1,12.7-8.9c7.4-4.8,13.2-4.5,19.9,1.2
	c3.3,2.8,6.7,5.6,8.9,9.4c-6,8.6-12.1,17.7-21.8,21.9c-7.9,3.5-17,2.1-25.4-0.6c-4.3-1.3-8.2-3.6-13-2.4c-2.2,0.6-1.8-1.6-1.9-3
	C471.2,824.3,471.3,822.3,471.4,820.3z"/>
<path class="st9" d="M306.3,744.2c8-4.7,16.6-8,25.6-10.3c5,2,9,6.6,14.9,6.5l0,0c0.1,1.9,1,2.2,2.5,1.2l0,0
	c-0.6,1.4,0.3,1.3,1.2,1.2c0.4,1.3,1.1,2.6-1.4,2.7c-13.8,0.2-27.6,0.6-41.3,1C305.8,746.6,304.9,746.2,306.3,744.2z"/>
<path class="st9" d="M729.4,675.8c-0.8,8-1.4,16-2.5,23.9c-0.8,5.4-6,5.2-9.9,6.5c-11.4-8.3-24.2-12.8-38.1-14.5
	c2.1-6.8,5.4-13.4,6.4-20.5c0.8-5.4,2-11.1-3.1-15.4c2.5-1.2,5-2.4,7.5-3.5C700.4,664.4,713.9,671.7,729.4,675.8z"/>
<path class="st1" d="M566.9,396.2c0.1-1.8,0.9-2.6,2.8-2c9.1,3.1,18.3,5.4,27.9,6.1c1.3,0.1,2.1,1.1,2.7,2.2
	c2.6,18.1,10.5,34.7,15.8,52c2,6.6,5.9,12.8,5.2,20.2c-2.3-0.4-2.2-4-4.9-3.8c0,0,0,0,0,0c0.2-2.2-0.6-3.9-2.5-5c0,0,0,0,0,0
	c-0.4-0.4-0.8-0.8-1.3-1.3c0,0,0,0,0,0c0.2-1.1-0.2-2-1.3-2.5c0,0,0,0,0,0c-0.4-0.4-0.9-0.8-1.3-1.3c0,0,0,0,0,0
	c0.1-1.1-0.2-2-1.3-2.5c0,0,0,0,0,0c-0.4-0.4-0.9-0.8-1.3-1.3c0,0,0,0,0,0c0.1-1.1-0.2-2-1.3-2.5c0,0,0,0,0,0
	c-0.4-0.4-0.8-0.8-1.3-1.3c0,0,0,0,0,0c0.1-1.1-0.2-2-1.3-2.5c0,0,0,0,0,0c-0.4-0.4-0.8-0.8-1.3-1.3c0,0,0,0,0,0
	c0.1-1.1-0.2-2-1.3-2.5c0,0,0,0,0,0c-0.4-0.4-0.8-0.8-1.3-1.3c0,0,0,0,0,0c0.2-1.1-0.2-2-1.3-2.5c0,0,0,0,0,0
	c-0.4-0.4-0.8-0.8-1.3-1.3c0,0,0,0,0,0c0.1-1.1-0.2-2-1.3-2.5c0,0,0,0,0,0c-0.4-0.4-0.8-0.8-1.3-1.3c0,0,0,0,0,0
	c0.1-1.1-0.2-2-1.3-2.5c0,0,0,0,0,0c-0.4-0.4-0.9-0.8-1.3-1.3c0,0,0,0,0,0c0.1-1.1-0.2-2-1.3-2.5c0,0,0,0,0,0
	c-0.3-1.4-0.8-2.5-2.5-2.5c0,0,0,0,0,0c-0.1-0.8-0.1-1.5-0.2-2.3c2.8-6.8,1-13.6,1-20.4c-0.8,0-1.6,0-2.5-0.1c0,6,0,12.1,0,18.1
	c-1.1-1-1.3-2.9-3.3-2.9c0,0,0,0,0,0c0.2-1.1-0.2-2-1.3-2.5c0,0,0,0,0,0c-0.1-1.7-1-3-2.5-3.8c0,0,0,0,0,0c-0.4-0.4-0.8-0.8-1.3-1.3
	c0,0,0,0,0,0c-0.1-0.8-0.4-1.2-1.3-1.3c0,0,0,0,0,0c0.2-1.2-0.1-2-1.3-2.5c0,0,0,0,0,0c-0.2-1.7-1-3-2.5-3.8c0,0,0,0,0,0
	c-0.2-1.7-1.1-2.9-2.5-3.8c0,0,0,0,0,0c-0.3-1.4-0.9-2.5-2.5-2.5c0,0,0,0,0,0c0.1-2.1-0.3-4-2.5-5L566.9,396.2z"/>
<path class="st7" d="M729.4,675.8c-15.5-4.1-29-11.4-39.7-23.6c3.1-2,4.4-5.3,6.1-8.3c13.1-0.8,26.1-1.3,38.7,3.6
	C732.8,656.9,731.1,666.4,729.4,675.8z"/>
<path class="st9" d="M734.5,647.4c-12.6-4.9-25.6-4.3-38.7-3.6c0-0.6,0-1.3,0.1-2c11.8-9.5,23.7-18.9,36.7-27
	c5.3-3.3,11.5-1.8,15.6,3.7c-6.6,5.8-8.6,14-11.3,21.9C736.1,642.9,735.3,645.2,734.5,647.4z"/>
<path class="st4" d="M515.7,393.8c-4.3,2.6-9.7-0.7-9.9-6.5c-0.2-6.5-0.1-13.1-0.1-19.6c0-1.6,0.4-3.6-2.5-2.4l-0.1-0.1
	c1.2-2.8,1.6-6.1,5-7.4l0.1,0.1c-1.8,10.4,1.3,20.6-0.4,31c0.5,0,1,0,1.5,0c0-4.9,0-9.8,0-14.7c0-2.5-0.4-5.1,2.5-6.4l0.1,0.1
	c0,7.1,0,14.2-0.1,21.3C511.9,391.8,512.1,394.1,515.7,393.8z"/>
<path class="st4" d="M536.8,396.3c-4.2-5.2-3.5-11.5-3.8-17.4c-2.8-2.1-5.7-1-8.5-1.2c-3.7-0.3-5.2,1.5-5.1,5.2
	c0.1,3.1,0.3,6.2-2.4,8.5c0-4.6,2.4-9.2-0.1-14.2c5.4-0.7,10.2-1.4,15-1.9c1.5-0.2,3.5,0.7,3.1,2.2C533.7,384,537,390,536.8,396.3z"
	/>
<path class="st4" d="M549.2,356.6c-9.3-2.5-18.7-1.4-28-0.7c-2.6,0.2-5.3,0.5-7.9,0.6c0,0,0,0,0,0c10.2-4.5,21-3.7,31.8-3.6
	c-0.3-1.9-0.5-3.5-0.7-5.1C547.1,350.1,549.2,352.7,549.2,356.6L549.2,356.6z"/>
<path class="st9" d="M668.4,653.4c-5.1,1.1-6.3,6.6-10.5,9.5c-1.5-6,1.6-11.2,0.6-16.6C661.8,648.6,665.1,651,668.4,653.4z"/>
<path class="st9" d="M676.1,551.7c1.6-0.3,1.7-2.7,3.6-2.6c-1.7,8.8-1.1,17.7-1.2,26.6c-0.5,0-0.9,0-1.4-0.1
	C674.8,567.7,676.5,559.6,676.1,551.7z"/>
<path class="st4" d="M512,367.7c7.1-4.5,15.3-3.6,23-4.8c3-0.5,6.1-0.1,9.2,0.4c-10.8,1.1-21.4,3-32.1,4.5
	C512.1,367.8,512,367.7,512,367.7z"/>
<path class="st9" d="M646.3,397.9c2.3,3.3,7.7,5.4,4.1,10.8c-1.9-0.1-3.9,0.5-5.4-1.2C645.4,404.3,645.8,401.1,646.3,397.9z"/>
<path class="st4" d="M623.9,479.6c2.8,1.5,2.7,4.1,3.4,7.5c-3.2-2.4-5-4.4-4.7-7.6c0,0,0.1-0.1,0.1-0.1
	C623.1,479.5,623.5,479.5,623.9,479.6z"/>
<path class="st4" d="M616.4,470.8c2.7-0.1,2.6,3.4,4.9,3.8c0,0,0,0,0,0c0.5,1.6,1,3.2,1.5,4.8c0,0-0.1,0.1-0.1,0.1
	C618.5,478.1,617.8,474.2,616.4,470.8z"/>
<path class="st4" d="M584.1,422.3c2-0.1,2.2,1.9,3.3,2.9c0.2,0.7,0.4,1.3,0.6,2l-0.2,0.1C585.7,426.3,584.2,424.9,584.1,422.3z"/>
<path class="st4" d="M613.9,465.8c1.9,1.1,2.7,2.8,2.5,5C614.1,469.9,613.7,468,613.9,465.8z"/>
<path class="st4" d="M645,515.5c2.1,1,2.6,2.9,2.5,5l-0.1,0.1c-2.1-1-2.6-2.9-2.5-5L645,515.5z"/>
<path class="st4" d="M566.7,396.3c2.2,1,2.6,2.9,2.5,5C566.9,400.4,566.6,398.4,566.7,396.3z"/>
<path class="st4" d="M652.3,529.3c-2.1-1-2.6-2.9-2.5-5l0.1-0.1c2.1,1,2.6,2.9,2.5,5L652.3,529.3z"/>
<path class="st4" d="M663.5,549.2c-2.1-1-2.5-2.9-2.5-5l0.1-0.1c2.1,1,2.6,2.9,2.5,5L663.5,549.2z"/>
<path class="st1" d="M622.8,479.4c-0.5-1.6-1-3.2-1.5-4.8c2.5,0.8,2.5,2.9,2.6,5C623.5,479.5,623.1,479.5,622.8,479.4z"/>
<path class="st4" d="M635.1,499.4c1.2,0.7,2.3,1.5,1.8,3.2c-2.6-0.1-1.7-1.9-2-3.1L635.1,499.4z"/>
<path class="st4" d="M643.6,514.4c-1-0.8-2.6-1.3-1.6-3.2c2.3,0.1,1.4,1.9,1.8,3.1C643.8,514.3,643.6,514.4,643.6,514.4z"/>
<path class="st4" d="M571.7,403.7c1.5,0.8,2.4,2,2.5,3.8C571.6,407.4,571.6,405.6,571.7,403.7z"/>
<path class="st4" d="M513.3,356.6c-1.3,1.8-3.2,1.1-4.9,1.3c0,0-0.1-0.1-0.1-0.1C509.6,356,511.5,356.7,513.3,356.6L513.3,356.6z"/>
<path class="st4" d="M569.2,401.2c1.7,0,2.2,1.1,2.5,2.5C570,403.8,569.2,402.9,569.2,401.2z"/>
<path class="st4" d="M580.4,416.1c1.5,0.8,2.4,2,2.5,3.8C581.1,419.3,580.3,418,580.4,416.1z"/>
<path class="st4" d="M656.9,535.6c-0.3,0.2-0.5,0.4-0.8,0.6c-0.2-0.4-0.5-0.8-0.7-1.2c0.3-0.1,0.7-0.4,0.9-0.3
	C656.6,534.8,656.7,535.3,656.9,535.6z"/>
<path class="st4" d="M574.2,407.4c1.6,0.8,2.4,2.1,2.5,3.8C574.9,410.6,574.1,409.3,574.2,407.4z"/>
<path class="st4" d="M589.1,429.8c1.7,0,2.3,1.1,2.5,2.5C589.9,432.3,589.1,431.5,589.1,429.8z"/>
<path class="st4" d="M677.1,575.6c0.5,0,0.9,0,1.4,0.1c0,1.1,0,2.3,0,3.4C677.2,578.2,677.2,576.9,677.1,575.6z"/>
<path class="st4" d="M538.1,400.1c-1.5-0.9-1.2-2.3-1.2-3.7C538.4,397.2,538.1,398.7,538.1,400.1z"/>
<path class="st4" d="M550.5,360.3c-1.4-0.9-1.2-2.4-1.2-3.7c0,0,0.1-0.1,0.1-0.1c1.4,0.9,1.2,2.3,1.3,3.7L550.5,360.3z"/>
<path class="st4" d="M663.7,549.1c1,0.6,1.2,1.5,1.2,2.5c0,0-0.1,0.1-0.1,0.1c-1-0.6-1.2-1.5-1.3-2.5
	C663.5,549.2,663.7,549.1,663.7,549.1z"/>
<path class="st4" d="M599,443.5c1.1,0.5,1.4,1.4,1.3,2.5C599.2,445.5,599,444.5,599,443.5z"/>
<path class="st4" d="M540.6,405c-1-0.5-1.2-1.4-1.2-2.5C540.4,403,540.6,404,540.6,405z"/>
<path class="st4" d="M666,554.2c-1-0.5-1.2-1.5-1.3-2.5c0,0,0.1-0.1,0.1-0.1c1,0.5,1.2,1.5,1.2,2.5L666,554.2z"/>
<path class="st4" d="M606.5,454.6c1.1,0.5,1.4,1.4,1.3,2.5C606.6,456.7,606.4,455.7,606.5,454.6z"/>
<path class="st4" d="M609,458.4c1,0.5,1.4,1.4,1.3,2.5C609.1,460.4,608.9,459.4,609,458.4z"/>
<path class="st4" d="M611.5,462.1c1.1,0.5,1.4,1.4,1.3,2.5C611.6,464.1,611.4,463.2,611.5,462.1z"/>
<path class="st4" d="M669.8,560.2c0.3,0.5,0.6,0.9,0.9,1.4c0,0-0.3,0.2-0.5,0.3c-0.2-0.5-0.4-1.1-0.6-1.6L669.8,560.2z"/>
<path class="st4" d="M517,391.4c0,0.4,0.1,0.8,0.1,1.2c-0.5,0.4-0.9,0.9-1.4,1.3C515.7,392.8,515.9,391.9,517,391.4z"/>
<path class="st4" d="M673.4,567.8c-1-0.6-1.2-1.5-1.2-2.5l0.1-0.1c1,0.6,1.2,1.5,1.3,2.5L673.4,567.8z"/>
<path class="st4" d="M601.5,447.2c1.1,0.5,1.4,1.4,1.3,2.5C601.7,449.2,601.5,448.3,601.5,447.2z"/>
<path class="st4" d="M673.6,567.7c0.3,0.5,0.6,0.9,0.9,1.4c0,0-0.3,0.2-0.4,0.3c-0.2-0.5-0.4-1.1-0.6-1.6
	C673.4,567.8,673.6,567.7,673.6,567.7z"/>
<path class="st4" d="M576.7,411.2c1.1,0.5,1.5,1.4,1.3,2.5C576.8,413.2,576.6,412.2,576.7,411.2z"/>
<path class="st4" d="M539.3,402.5c-1-0.5-1.2-1.5-1.2-2.5C539.2,400.6,539.3,401.5,539.3,402.5z"/>
<path class="st4" d="M661,544.2c-1-0.5-1.2-1.5-1.3-2.5l0.2-0.2c1,0.6,1.2,1.5,1.2,2.5C661.2,544.1,661,544.2,661,544.2z"/>
<path class="st4" d="M582.9,419.9c1.1,0.5,1.4,1.4,1.3,2.5C583,421.9,582.8,420.9,582.9,419.9z"/>
<path class="st4" d="M589,427.5c0.1,0.8,0.1,1.5,0.2,2.3c-1.1-0.5-1.3-1.4-1.2-2.5c0,0,0.2-0.1,0.2-0.1
	C588.3,427.3,588.7,427.4,589,427.5z"/>
<path class="st4" d="M591.6,432.3c1.1,0.5,1.4,1.4,1.3,2.5C591.7,434.3,591.5,433.4,591.6,432.3z"/>
<path class="st9" d="M658.4,646.1c-0.8-0.4-1.5-0.9-2.3-1.3C656.9,645.2,657.7,645.7,658.4,646.1z"/>
<path class="st4" d="M594.1,436c1.1,0.5,1.4,1.4,1.3,2.5C594.2,438,594,437.1,594.1,436z"/>
<path class="st4" d="M604,450.9c1.1,0.5,1.4,1.4,1.3,2.5C604.2,452.9,604,452,604,450.9z"/>
<path class="st4" d="M596.6,439.7c1.1,0.5,1.4,1.4,1.3,2.5C596.7,441.8,596.5,440.8,596.6,439.7z"/>
<path class="st4" d="M644.9,515.6c-0.4-0.4-0.8-0.8-1.2-1.2c0,0,0.1-0.1,0.1-0.1c0.4,0.4,0.8,0.8,1.2,1.2
	C645,515.5,644.9,515.6,644.9,515.6z"/>
<path class="st4" d="M647.5,520.5c0.2,0.2,0.3,0.4,0.5,0.6c-0.2-0.2-0.4-0.3-0.6-0.5C647.4,520.6,647.5,520.5,647.5,520.5z"/>
<path class="st4" d="M638.8,505.6c0.2,0.2,0.3,0.4,0.5,0.6c-0.2-0.2-0.4-0.3-0.6-0.5L638.8,505.6z"/>
<path class="st4" d="M595.3,438.5c0.4,0.4,0.8,0.8,1.3,1.3C596.1,439.3,595.7,438.9,595.3,438.5z"/>
<path class="st4" d="M597.8,442.2c0.4,0.4,0.8,0.8,1.3,1.3C598.6,443.1,598.2,442.7,597.8,442.2z"/>
<path class="st4" d="M638.7,505.7c-0.2-0.2-0.3-0.4-0.5-0.6c0.2,0.2,0.4,0.3,0.6,0.5C638.8,505.6,638.7,505.7,638.7,505.7z"/>
<path class="st4" d="M634.9,499.5c-0.2-0.2-0.3-0.4-0.5-0.6c0.2,0.2,0.4,0.3,0.6,0.5C635.1,499.4,634.9,499.5,634.9,499.5z"/>
<path class="st4" d="M592.8,434.8c0.4,0.4,0.9,0.8,1.3,1.3C593.7,435.6,593.2,435.2,592.8,434.8z"/>
<path class="st4" d="M649.8,524.3c-0.2-0.2-0.3-0.4-0.5-0.6c0.2,0.2,0.4,0.3,0.6,0.5C650,524.2,649.8,524.3,649.8,524.3z"/>
<path class="st4" d="M652.5,529.2c0.2,0.2,0.3,0.4,0.5,0.6c-0.2-0.2-0.4-0.3-0.6-0.5C652.3,529.3,652.5,529.2,652.5,529.2z"/>
<path class="st4" d="M659.8,541.7c-0.2-0.2-0.3-0.4-0.5-0.6c0.2,0.2,0.4,0.3,0.6,0.5C659.9,541.6,659.8,541.7,659.8,541.7z"/>
<path class="st4" d="M600.3,446c0.4,0.4,0.8,0.8,1.3,1.3C601.1,446.8,600.7,446.4,600.3,446z"/>
<path class="st4" d="M579.1,414.9c0.4,0.4,0.8,0.8,1.3,1.3C580,415.7,579.6,415.3,579.1,414.9z"/>
<path class="st4" d="M577.9,413.7c0.8,0,1.2,0.5,1.3,1.3C578.7,414.5,578.3,414.1,577.9,413.7z"/>
<path class="st4" d="M612.7,464.6c0.4,0.4,0.8,0.8,1.3,1.3C613.5,465.4,613.1,465,612.7,464.6z"/>
<path class="st4" d="M672.2,565.3c-0.2-0.2-0.3-0.4-0.5-0.6c0.2,0.2,0.4,0.3,0.6,0.5C672.3,565.2,672.2,565.3,672.2,565.3z"/>
<path class="st4" d="M669.7,560.4c-0.2-0.2-0.3-0.4-0.5-0.6c0.2,0.2,0.4,0.3,0.6,0.5C669.8,560.2,669.7,560.4,669.7,560.4z"/>
<path class="st4" d="M610.2,460.9c0.4,0.4,0.9,0.8,1.3,1.3C611.1,461.7,610.6,461.3,610.2,460.9z"/>
<path class="st4" d="M607.7,457.1c0.4,0.4,0.9,0.8,1.3,1.3C608.6,458,608.1,457.6,607.7,457.1z"/>
<path class="st4" d="M666.1,554c0.2,0.2,0.3,0.4,0.5,0.6c-0.2-0.2-0.4-0.3-0.6-0.5C666,554.2,666.1,554,666.1,554z"/>
<path class="st4" d="M605.2,453.4c0.4,0.4,0.8,0.8,1.3,1.3C606.1,454.3,605.7,453.8,605.2,453.4z"/>
<path class="st4" d="M602.7,449.7c0.4,0.4,0.8,0.8,1.3,1.3C603.6,450.5,603.2,450.1,602.7,449.7z"/>
<path class="st3" d="M550.6,360.2c-0.1-1.4,0.1-2.8-1.3-3.7c-0.1-3.8-2.2-6.4-5-8.7c0,0,0,0,0,0c-0.7-2.8-5.4-1.9-5.1-6.1
	c0.3-4.6,0.2-9.4-0.7-13.9c-2-10.6-4.1-21.2-9.1-30.9c-1.7-2.9-3.3-2.9-5,0c-5.2,3.3-3.9,8.4-3.2,13.1c1.1,7.2,3.9,14.2,3.3,21.7
	c-6-0.5-10.5-4.8-16.2-6.2c-0.4-0.4-0.8-0.8-1.3-1.2c-0.1-0.1-0.1-0.3-0.2-0.4c-0.1-0.1-0.2-0.1-0.3-0.1c0.2,0.2,0.3,0.3,0.5,0.5
	c0.4,0.4,0.8,0.8,1.2,1.3c3.6,6.2,9.9,8.1,16.2,9.8c0.1,8.7,0.1,8.7-8.2,8.8c-3.3,0-6.5,0.2-9.1,2.5l0,0c-1,0-2,0.2-2.5,1.2l0,0
	c-0.4,0.4-0.8,0.8-1.2,1.2c0,0,0,0,0,0c-0.9,0.4-1.7,0.9-2.6,1.3c-3.2-0.2-4.9-3.9-8.4-3.6c-0.5-2.9-2-4.8-5.1-5.2
	c-0.2-1.9,0.4-3.5,1.3-5.1c0.4-0.6,0.7-1.1,1.1-1.7c0,0-0.1-0.1-0.1-0.1c8.2-7.9,8.9-17.5,2.2-26.5c-3.1-4.1-5.3-8.8-8.5-12.8
	c-3.8-4.7-4.1-9.6-2.1-15c2.7,1.4,5.4,2.9,8.2,4.1c7.3,3.1,13.6,1.5,18.5-4.6c-15.9,2.6-16.1,2.6-25-2.5c0.7-0.5,1.4-1.1,2.1-1.6
	c5.3-1.9,10.8-2.1,17.5-1.2c-3.6-3.6-7.1-2.2-10.1-2.6c11.8-5.8,15.9-14.6,12.6-27.7c-2.5-10,2.6-17.6,10.8-23
	c4.8-3.1,9.9-5.8,14.8-8.6c7.2,1.6,12.9,8.3,21.2,5.9c20.5,8.9,30.3,25,31.1,46.9c0.1,3.6,1.3,5.5,4.5,7.1
	c7.3,3.5,10.3,8.4,9.2,15.4c-1.1,6.4-5.2,10.5-11.7,11.9c-2.4,0.5-3.8,1.7-4.6,4.8c-3.6,14.3-9.5,27.6-20.2,38.2
	c-2.2,2.2-3.3,4.5-3.2,7.6c0.2,5.7,0.1,11.5,0.1,17.7C553.4,366,553.8,361.7,550.6,360.2z M581.7,296.2c6.4-0.9,8.6-2.4,9.6-6.8
	c1-4.1,0.2-7.7-3.4-10.5c-3.5-2.7-5.7-2.1-6.1,2.5C581.4,286.3,581.7,291.2,581.7,296.2z M571.7,267.8c-5.6-6.3-17.8-8.4-22.4-3.9
	C556.1,268.4,563.2,269.1,571.7,267.8z M546.3,281.2c7.1,9.6,14.6,9.2,29.5-1.6C566.2,282.1,556.7,288.2,546.3,281.2z"/>
<path class="st12" d="M532.7,144.7c8.9-5,18.3-7,27.9-3.9c11.9,3.8,15.1,14.2,17.3,25.1c2.3,11.4,0.3,22.6-1.8,33.6
	c-3,16.3,0.1,21.7,15.4,28.1c21.1,8.9,27.9,22.8,29.5,41.9c0.5,5.2-0.6,11-3,16.9c-0.8-5.8,1.2-10.7,1-15.8
	c-0.6-18.4-11.9-34.4-29.3-40.4c-16.1-5.6-20.1-13.1-17.2-29.7c2.5-14.4,4.8-28.7-0.2-43.3c-3.3-9.6-12.2-16.7-25.2-14.6
	C542.3,143.3,537.5,144,532.7,144.7z"/>
<path class="st12" d="M460.1,226.3c-0.7,1-1.7,1.1-2.8,1c-0.1-8-2.9-15.7-2.6-23.8c0.3-6.3,1.5-12.2,4.2-17.8
	c4.1-8.7,12-12.3,21.6-11c5.7,0.8,11.2,2.5,16.6,4.2c-1.3,1.9-3.3,1.1-5.1,1.3c-18.3-8.3-31.8-1.3-33.7,17.5
	C457.4,207.4,459.1,216.8,460.1,226.3z"/>
<path class="st12" d="M438.8,249.6c1,0.6,1.2,1.6,1.1,2.6c-14.6,8.7-19.7,21.8-17.3,38.8C415.3,280.5,423.5,260.4,438.8,249.6z"/>
<path class="st9" d="M313.4,691.9c-3-9.1-6-18.2-9-27.3c17.8-1.5,34.5-6,48.8-17.2c2.3-1.8,4-1.4,5.9,0.3c0.1,1.5-0.3,2.9-1.4,4
	C343.7,665.9,329.6,680.1,313.4,691.9z"/>
<path class="st9" d="M364,634.7c-4.4-4.8-8.9-9.6-13.7-14.9c9-8.6,14.8-18.9,20.1-29.6C369.5,605.2,367.4,620,364,634.7z"/>
<path class="st7" d="M419.8,606.6c0.9,8.6-2,16.7-3.6,25c-0.2,1.2-1.1,1.6-2.2,1.7C415.9,624.4,417.9,615.5,419.8,606.6z"/>
<path class="st2" d="M346.8,740.4c-6,0.1-9.9-4.5-14.9-6.5c0.9-0.5,1.7-0.9,2.6-1.3C338.4,735.5,343.6,736.3,346.8,740.4z"/>
<path class="st9" d="M760.2,621.2c13.7,2.5,27.1,6.7,41.2,6.3c2.3-0.1,4.5-0.1,6.8-0.1c-1.6,12.7-3.1,25.4-4.7,38.2
	c-0.3,2.4-1,4.1-3.5,5.2c-23,9.8-46,19.8-68.9,29.7c-0.3,0.1-0.8-0.1-2.2-0.3c5.4-7.4,8.3-15.6,14.1-22.1c7.6,2.7,15.4,2.4,23,0.4
	c6.6-1.7,7.9-6.3,3.4-11.6c-4.2-4.9-9.3-8.7-15.5-10.8c2-6.2,4.1-12.3,6-18.6C761.3,632.1,761.9,626.7,760.2,621.2z"/>
<path class="st7" d="M678.9,691.7c13.9,1.7,26.7,6.2,38.1,14.5c-11.2,5.6-22.4,11.2-33.5,16.9c-1.2-2.7-4.1-2.4-6.2-3.4
	c-3-1.5-6.7-1.9-8.7-5.2C670.9,706.3,675.7,699.4,678.9,691.7z"/>
<path class="st7" d="M753.8,656c6.2,2.1,11.3,6,15.5,10.8c4.5,5.2,3.2,9.8-3.4,11.6c-7.6,2-15.4,2.4-23-0.4
	C745.5,670.2,750,663.3,753.8,656z"/>
<path class="st7" d="M721.4,709.3c2.3,0.5,4,1.9,5.5,3.7c5.9,7.2,4.2,12.5-5.1,13.5c-10.4,1.2-20.9,1-30.9-3.3
	C700.4,717.2,710.4,712.2,721.4,709.3z"/>
<path class="st9" d="M668.5,714.4c1.9,3.3,5.7,3.7,8.7,5.2c2.1,1,5,0.7,6.2,3.4c-9.2,4.6-18.4,9.2-27.6,13.7
	c-0.4-0.3-0.8-0.6-1.2-0.9C659.6,729,662.4,720.7,668.5,714.4z"/>
<path class="st9" d="M657.3,691.9c-1.4-0.5-3.2,0.6-4.7-1.2c1.8-3.7,4.3-7,7.4-9.9C660.2,684.8,659.4,688.5,657.3,691.9z"/>
<path class="st9" d="M659.8,680.9c0.4-0.4,0.7-0.7,1.1-1.1C660.8,680.4,660.7,681.1,659.8,680.9z"/>
<path class="st9" d="M392,412.4c-16.3,8.8-20.4,24.1-21.7,40.9c-8.1-3.6-15.9-8.1-24.7-10.2c1.8-19.1-2.6-36.9-11.6-53.7
	c-0.5-0.9-0.6-1.9-0.8-2.9c15.8,3.8,31.7,6.8,47.8,8.6c3.6,0.4,5.5,1.8,6.6,5.2C388.9,404.4,390.5,408.3,392,412.4z"/>
<path class="st9" d="M407.8,406.3c-4.3,1.5-8.5,3-12.8,4.5c-7.4-12-7-22.6,5-31.6c1.9-1.4,3.3-3.5,5-5.3c0,0,0.1,0.1,0.1,0.1
	C402.3,385.1,403.9,395.8,407.8,406.3z"/>
<path class="st9" d="M416.9,357.9c0.8,0.4,1.5,0.9,2.3,1.3c-1.7,4.2-3.6,8.2-9,8.6c0,0-0.1-0.1-0.1-0.1
	C412.3,364.4,414.6,361.2,416.9,357.9z"/>
<path class="st9" d="M407.3,371.1c0.5-0.7,1.1-1.4,1.6-2.1c0,0,0,0,0,0c0,1.1-0.3,1.9-1.3,2.5L407.3,371.1z"/>
<path class="st9" d="M346.1,301.4c0.1,0.5,0.2,0.9,0.3,1.4c-0.4-0.2-0.8-0.4-1.2-0.6C345.6,301.9,345.8,301.6,346.1,301.4z"/>
<path class="st9" d="M406.2,372.5c0.4-0.5,0.7-0.9,1.1-1.4c0,0,0.3,0.3,0.3,0.3c-0.4,0.4-0.8,0.8-1.2,1.2
	C406.4,372.7,406.2,372.5,406.2,372.5z"/>
<path class="st9" d="M315,235.6c0.1,0.4,0.3,0.8,0.4,1.2c-0.4-0.2-0.7-0.4-1.1-0.6C314.6,236,314.8,235.8,315,235.6z"/>
<path class="st9" d="M405.1,373.9c0.4-0.4,0.8-0.9,1.2-1.3c0,0,0.2,0.2,0.2,0.2c-0.4,0.4-0.8,0.8-1.2,1.3
	C405.2,374,405.1,373.9,405.1,373.9z"/>
<path class="st9" d="M408.9,369c0.4-0.5,0.7-0.9,1.1-1.4c0,0,0.1,0.1,0.1,0.1C409.8,368.2,409.3,368.6,408.9,369
	C408.9,369,408.9,369,408.9,369z"/>
<path class="st9" d="M383.4,390.8c0.1,0.4,0.2,0.9,0.3,1.3c-0.4-0.2-0.8-0.4-1.1-0.5C382.8,391.3,383.1,391.1,383.4,390.8z"/>
<path class="st4" d="M408.9,369c0.4-0.4,0.8-0.8,1.2-1.2c5.4-0.3,7.2-4.4,9-8.6c14.5,5.1,29,6.4,43.9,1.2
	c10.4-3.6,17.5-10.8,24.2-18.8c3,0.4,4.5,2.3,5.1,5.2c0,1.5,0.1,3,0.1,4.6c0.6,3.4-2.7,7.6,2.2,10.1l0.1,0.1
	c-0.3,4.6-5.1,7.2-5.7,11.7c2.4,1.1,4.7,0.5,6.9,0.6l0.1,0.1c-2,1.7-3.8,3.2-3.9,6.4c-0.3,7.3-5.1,12.5-10.9,15.4
	c-5.8,2.9-12.4,4.7-18.9,5.2c-18.2,1.5-36.4,2.2-54.3,5.3c-4-10.5-5.6-21.3-2.7-32.4c0.4-0.4,0.8-0.8,1.2-1.3
	c0.4-0.4,0.8-0.8,1.2-1.2C408.7,371,408.9,370.1,408.9,369z"/>
<path class="st4" d="M460.1,226.3c-1-9.5-2.8-18.9-1.7-28.6c2-18.8,15.5-25.8,33.7-17.5c-0.3,3-3.1,3.8-4.9,5.2
	c-7.9,6.1-12.1,13.5-10.3,23.9C478.6,218.3,470.7,225.8,460.1,226.3z"/>
<path class="st13" d="M530.5,212.7c-5,2.9-10.1,5.5-14.8,8.6c-8.2,5.4-13.3,13-10.8,23c3.3,13.1-0.9,21.9-12.6,27.7
	c-1.9,0.1-3.6,1.7-5.7,0.9c0.2-0.4,0.3-0.9,0.6-1c13.1-7.1,12.7-19,10.9-31.2c-2-13.8,2.5-21.4,15.8-25.9
	C519.2,212.9,524.6,210.4,530.5,212.7z"/>
<path class="st13" d="M481,280.5c-2,5.4-1.7,10.2,2.1,15c3.2,4,5.5,8.7,8.5,12.8c6.7,9,6.1,18.6-2.2,26.5
	c-0.2-8.4-2.1-16.1-7.2-23.1c-3.2-4.4-5.5-9.6-8-14.5c-3.4-6.7-2.5-12.7,3.4-17.7C478.9,279.5,480.2,279.3,481,280.5z"/>
<path class="st4" d="M484.6,248.4c4.3-7.7,2-15.5,0.8-23.4c-1.5-9.2-1.3-18.4,1.9-27.3c0.8-2.2,1.4-4.7,5.6-5.8
	c-5.5,9.4-6.6,18.8-5.7,28.5c0.6,6.7,2.8,13.2,2.4,20.1c-0.2,3.6-0.4,7.2-4.9,8.1C484.8,248.6,484.6,248.4,484.6,248.4z"/>
<path class="st14" d="M481,280.5c-0.8-1.2-2.1-0.9-3.3-1c0.6-1.3,1.6-2.1,3-2.5c0.7,0.2,1.4,0.4,2.1,0.5c8.9,5,9.1,5.1,25,2.5
	c-4.9,6.1-11.2,7.7-18.5,4.6C486.4,283.3,483.7,281.8,481,280.5z"/>
<path class="st4" d="M461,263.4c0.3-3,2.5-4.8,4.8-6c6.2-3.2,12.5-6,18.8-9c0,0,0.2,0.2,0.2,0.2c-0.1,1.6-0.8,2.9-2.2,3.4
	c-7.6,2.9-14.7,6.9-21.4,11.5L461,263.4z"/>
<path class="st4" d="M522,190.1c-2.8,0.5-5.4-0.5-7.8-1.4c-6.8-2.3-13.2-0.6-20.9,1.9C500.4,183.9,512.8,184.2,522,190.1L522,190.1z
	"/>
<path class="st15" d="M486.5,272.9c2.1,0.8,3.8-0.7,5.7-0.9c3,0.5,6.5-1,10.1,2.6c-6.7-0.9-12.2-0.7-17.5,1.2
	c-0.1-0.5-0.2-1-0.3-1.5c0,0,0.1,0.1,0.1,0.1c0.5-0.5,1-0.9,1.5-1.4L486.5,272.9z"/>
<path class="st4" d="M457,267.7c0.9,0,1.3,0.3,1.1,1c-0.1,0.5-0.6,1.1-1,1.2c-0.7,0.3-1-0.4-0.9-1C456.4,268.4,456.8,268,457,267.7z
	"/>
<path class="st13" d="M484.5,274.4c0.1,0.5,0.2,1,0.3,1.5c-0.7,0.5-1.4,1.1-2.1,1.6c-0.7-0.2-1.4-0.4-2.1-0.5
	C481.6,275.6,482.6,274.4,484.5,274.4z"/>
<path class="st4" d="M522,190.1c0.5,0.2,1.1,0.3,1.6,0.5c-0.1,0.2-0.2,0.3-0.3,0.5C522.8,190.7,522.4,190.4,522,190.1
	C522,190.1,522,190.1,522,190.1z"/>
<path class="st4" d="M528.2,192.6c-0.5-0.1-1.1-0.3-1.6-0.4C527.5,191,527.7,192.1,528.2,192.6L528.2,192.6z"/>
<path class="st4" d="M528.2,192.6c0.5,0.2,1.1,0.3,1.6,0.5C528.9,194.2,528.6,193.1,528.2,192.6
	C528.2,192.6,528.2,192.6,528.2,192.6z"/>
<path class="st13" d="M489.6,334.8c-0.4,0.6-0.7,1.1-1.1,1.7C488.9,336,489.3,335.4,489.6,334.8z"/>
<path class="st13" d="M486,273.1c-0.5,0.5-1,0.9-1.5,1.4C485.1,274,485.5,273.6,486,273.1z"/>
<path class="st4" d="M461.1,263.5c-0.2,0.2-0.4,0.3-0.6,0.5c0.2-0.2,0.3-0.4,0.5-0.6C461,263.4,461.1,263.5,461.1,263.5z"/>
<path class="st9" d="M731.3,260.4c-0.5,0.1-1,0.2-1.5,0.3c0.1-0.5,0.3-1,0.4-1.5C730.5,259.6,730.9,260,731.3,260.4z"/>
<path class="st9" d="M657.5,403.9c-0.3,0.3-0.7,0.8-0.8,0.7c-0.8-0.5-0.3-0.9,0.2-1.4C657.1,403.5,657.3,403.7,657.5,403.9z"/>
<path class="st9" d="M249.5,687.7c0.2,0.5,0.6,1.2,0.4,1.4c-0.6,0.7-1.3,0.3-1.9-0.1C248.6,688.5,249,688.1,249.5,687.7z"/>
<path class="st4" d="M502.1,366.5c0,1-0.3,1.9-1.2,2.5c0,0-0.1-0.1-0.1-0.1C500.8,367.9,501.1,367,502.1,366.5L502.1,366.5z"/>
<path class="st4" d="M498.5,371.6c-0.4,0.4-0.8,0.8-1.3,1.3c0,0-0.1-0.2-0.1-0.2c0.4-0.4,0.8-0.8,1.2-1.2
	C498.3,371.4,498.5,371.6,498.5,371.6z"/>
<path class="st4" d="M499.7,370.3c-0.4,0.4-0.8,0.8-1.2,1.3c0,0-0.2-0.1-0.2-0.1c0.4-0.4,0.8-0.8,1.2-1.2L499.7,370.3z"/>
<path class="st4" d="M500.9,369.1c-0.4,0.4-0.8,0.8-1.2,1.3c0,0-0.1-0.1-0.1-0.1c0.4-0.4,0.8-0.8,1.2-1.2
	C500.8,368.9,500.9,369.1,500.9,369.1z"/>
<path class="st4" d="M497.2,372.8c-0.4,0.4-0.9,0.8-1.3,1.2c0,0-0.1-0.1-0.1-0.1c0.4-0.4,0.8-0.8,1.2-1.3L497.2,372.8z"/>
<path class="st4" d="M503.4,365.3c-0.4,0.4-0.8,0.8-1.2,1.2c0,0-0.1-0.1-0.1-0.1C502.5,366.1,502.9,365.6,503.4,365.3
	C503.3,365.2,503.4,365.3,503.4,365.3z"/>
<path class="st2" d="M349.3,741.7c-1.5,0.9-2.4,0.7-2.5-1.2C348.1,740,349,740.2,349.3,741.7z"/>
<path class="st2" d="M350.5,742.9c-0.9,0.1-1.8,0.2-1.2-1.2C350.2,741.6,351.1,741.5,350.5,742.9z"/>
<path class="st11" d="M589,427.5c-0.3-0.2-0.6-0.3-0.9-0.4c-0.2-0.7-0.4-1.3-0.6-2c0-6,0-12,0-18.1c0.8,0,1.6,0,2.5,0.1
	C589.9,414,591.7,420.7,589,427.5z"/>
<path class="st3" d="M503.3,365.2c-0.4,0.4-0.8,0.8-1.2,1.3c-1,0.5-1.2,1.4-1.3,2.5c-0.4,0.4-0.8,0.8-1.2,1.2
	c-0.4,0.4-0.8,0.8-1.2,1.2c-0.4,0.4-0.8,0.8-1.2,1.2c-0.4,0.4-0.8,0.8-1.2,1.3c-2.2-0.1-4.5,0.5-6.9-0.6c0.6-4.5,5.4-7.1,5.7-11.7
	c0.2-0.2,0.3-0.4,0.5-0.6c-0.2,0.2-0.4,0.3-0.6,0.5c-4.9-2.5-1.6-6.7-2.2-10.1c2.5,0.4,4.3,2.7,7,2.6c0.3,0.2,0.6,0.3,1,0.5
	c0.1-0.6,0.2-1.1,0.3-1.7l0,0c1.8-0.6,2.6-1.8,2.5-3.7c0,0,0,0,0,0c0.4-0.4,0.8-0.8,1.2-1.2c0,0,0,0,0,0c1,0,1.9-0.2,2.5-1.2l0,0
	c12.4,0.3,24.9-0.9,37.3,1.2c0,0,0,0,0,0c0.2,1.6,0.5,3.2,0.7,5.1c-10.8-0.1-21.6-0.9-31.8,3.6c-1.7,0.1-3.7-0.5-5,1.2
	C504.9,359.1,504.5,362.4,503.3,365.2z"/>
<path class="st4" d="M544.3,347.9c-12.4-2.1-24.8-0.9-37.3-1.2c2.7-2.2,5.9-2.4,9.1-2.5c8.3-0.1,8.3-0.1,8.2-8.8
	c0-1.2,0-2.5,0.1-3.7c0.6-7.5-2.2-14.5-3.3-21.7c-0.7-4.6-2-9.8,3.2-13.1l0.1,0.1c-2.2,6.5-1.8,13,0.1,19.4
	c2.6,8.9,2.2,18.2,2.5,27.3c3.6,0.6,6.3,1,9.9,1.5c-0.7-8.6,0.7-16.4-1.7-24.4c-2.3-7.8-5.3-15.6-5.9-23.8l0.1-0.1
	c5,9.7,7.1,20.3,9.1,30.9c0.9,4.5,1,9.3,0.7,13.9C538.9,345.9,543.6,345,544.3,347.9z"/>
<path class="st13" d="M581.7,296.2c0-5-0.3-9.9,0.1-14.7c0.4-4.6,2.6-5.2,6.1-2.5c3.6,2.8,4.4,6.4,3.4,10.5
	C590.3,293.8,588.1,295.3,581.7,296.2z"/>
<path class="st4" d="M571.7,267.8c-8.5,1.3-15.6,0.6-22.4-3.9C553.9,259.4,566.1,261.5,571.7,267.8z"/>
<path class="st14" d="M546.3,281.2c10.3,7,19.9,0.9,29.5-1.6C561,290.4,553.4,290.8,546.3,281.2z"/>
<path class="st13" d="M524.5,331.7c0,1.2,0,2.5-0.1,3.7c-6.3-1.8-12.5-3.7-16.2-9.8c0,0,0.1-0.1,0.1-0.1
	C514,326.9,518.5,331.2,524.5,331.7z"/>
<path class="st13" d="M499.5,354c-2.7,0.1-4.5-2.2-7-2.6c0-1.5-0.1-3-0.1-4.6c3.5-0.3,5.2,3.4,8.4,3.6c0,0.8,0,1.6,0,2.4
	c0,0,0,0,0,0C500.3,353.2,499.9,353.6,499.5,354z"/>
<path class="st4" d="M524.4,296.9c1.7-2.9,3.4-2.9,5,0c0,0-0.1,0.1-0.1,0.1c-1.6,0-3.3,0-4.9,0L524.4,296.9z"/>
<path class="st4" d="M500.8,352.8c0-0.8,0-1.6,0-2.4c0.9-0.4,1.7-0.9,2.6-1.3C503.4,351,502.5,352.2,500.8,352.8z"/>
<path class="st4" d="M507,346.6c-0.5,1-1.4,1.2-2.5,1.2C505.1,346.8,506,346.6,507,346.6z"/>
<path class="st13" d="M507.1,324.3c0.4,0.4,0.8,0.8,1.3,1.2c0,0-0.1,0.1-0.1,0.1C507.8,325.1,507.4,324.7,507.1,324.3L507.1,324.3z"
	/>
<path class="st13" d="M507,324.3c-0.2-0.2-0.3-0.3-0.5-0.5c0.1,0,0.3,0,0.3,0.1C507,324,507,324.1,507,324.3
	C507.1,324.3,507,324.3,507,324.3z"/>
<path class="st4" d="M504.6,347.9c-0.4,0.4-0.8,0.8-1.2,1.2C503.7,348.7,504.1,348.3,504.6,347.9z"/>
<path class="st4" d="M499.5,354c0.4-0.4,0.9-0.8,1.3-1.2c-0.1,0.6-0.2,1.1-0.3,1.7C500.1,354.3,499.8,354.2,499.5,354z"/>
<path class="st4" d="M494.6,361.5c0.2-0.2,0.4-0.3,0.6-0.5C495,361.2,494.8,361.4,494.6,361.5C494.7,361.6,494.6,361.5,494.6,361.5z
	"/>
<path class="st3" d="M524.5,297c1.6,0,3.3,0,4.9,0c0.6,8.3,3.6,16,5.9,23.8c2.4,8,1,15.8,1.7,24.4c-3.6-0.6-6.3-1-9.9-1.5
	c-0.3-9.1,0.2-18.4-2.5-27.3C522.7,310,522.3,303.5,524.5,297z"/>
</svg>
